<?xml version="1.0" encoding="utf-8"?>
<!-- Generator: Adobe Illustrator 19.2.1, SVG Export Plug-In . SVG Version: 6.00 Build 0)  -->
<!DOCTYPE svg PUBLIC "-//W3C//DTD SVG 1.1//EN" "http://www.w3.org/Graphics/SVG/1.1/DTD/svg11.dtd">
<svg version="1.1" id="Layer_1" xmlns="http://www.w3.org/2000/svg" xmlns:xlink="http://www.w3.org/1999/xlink" x="0px" y="0px"
	 width="1890.1px" height="2689.6px" viewBox="0 0 1890.1 2689.6" style="enable-background:new 0 0 1890.1 2689.6;"
	 xml:space="preserve">
<style type="text/css">
	.st0{fill:url(#SVGID_1_);}
	.st1{fill:url(#SVGID_2_);}
	.st2{fill:url(#SVGID_3_);}
	.st3{fill:url(#SVGID_4_);}
	.st4{fill:url(#SVGID_5_);}
	.st5{fill:url(#SVGID_6_);}
	.st6{fill:url(#SVGID_7_);}
	.st7{fill:url(#SVGID_8_);}
	.st8{fill:url(#SVGID_9_);}
	.st9{fill:url(#SVGID_10_);}
	.st10{fill:url(#SVGID_11_);}
	.st11{fill:url(#SVGID_12_);}
	.st12{fill:url(#SVGID_13_);}
	.st13{fill:url(#SVGID_14_);}
	.st14{fill:url(#SVGID_15_);}
	.st15{fill:url(#SVGID_16_);}
	.st16{fill:url(#SVGID_17_);}
	.st17{fill:url(#SVGID_18_);}
	.st18{fill:url(#SVGID_19_);}
	.st19{fill:url(#SVGID_20_);}
	.st20{fill:url(#SVGID_21_);}
	.st21{fill:url(#SVGID_22_);}
	.st22{fill:url(#SVGID_23_);}
	.st23{fill:url(#SVGID_24_);}
	.st24{fill:url(#SVGID_25_);}
	.st25{fill:url(#SVGID_26_);}
	.st26{fill:url(#SVGID_27_);}
	.st27{fill:url(#SVGID_28_);}
	.st28{fill:url(#SVGID_29_);}
	.st29{fill:url(#SVGID_30_);}
	.st30{fill:url(#SVGID_31_);}
	.st31{fill:url(#SVGID_32_);}
	.st32{fill:url(#SVGID_33_);}
	.st33{fill:url(#SVGID_34_);}
	.st34{fill:url(#SVGID_35_);}
	.st35{fill:url(#SVGID_36_);}
	.st36{fill:url(#SVGID_37_);}
	.st37{fill:url(#SVGID_38_);}
	.st38{fill:url(#SVGID_39_);}
	.st39{fill:url(#SVGID_40_);}
	.st40{fill:url(#SVGID_41_);}
	.st41{fill:url(#SVGID_42_);}
	.st42{fill:url(#SVGID_43_);}
	.st43{fill:url(#SVGID_44_);}
	.st44{fill:url(#SVGID_45_);}
	.st45{fill:url(#SVGID_46_);}
	.st46{fill:url(#SVGID_47_);}
	.st47{fill:url(#SVGID_48_);}
	.st48{fill:url(#SVGID_49_);}
	.st49{fill:url(#SVGID_50_);}
	.st50{fill:url(#SVGID_51_);}
	.st51{fill:url(#SVGID_52_);}
	.st52{fill:url(#SVGID_53_);}
	.st53{fill:url(#SVGID_54_);}
	.st54{fill:url(#SVGID_55_);}
	.st55{fill:url(#SVGID_56_);}
</style>
<g>
	<g>
		<linearGradient id="SVGID_1_" gradientUnits="userSpaceOnUse" x1="1.716614e-05" y1="1823.1102" x2="1034.411" y2="1823.1102">
			<stop  offset="0" style="stop-color:#F13DD2"/>
			<stop  offset="1" style="stop-color:#5644C2"/>
		</linearGradient>
		<path class="st0" d="M204,2468.2c-1.3,10.7-3.3,22.8-3.9,35c-0.4,8.9,0.8,17.9,1.8,26.8c0.5,4.4,0,7-5,7.7
			c-10.2,1.5-20.3,3.7-30.5,5.1c-12.8,1.9-25.5-3.8-30.6-14.1c-1.6-3.3-2.4-7.7-1.7-11.2c4.3-23.9,9.2-47.7,13.8-71.6
			c0.2-1,0-2.3,0.5-2.9c9.9-10.6,4.2-23.4,5.2-35.2c0.1-0.8-0.7-1.7-1-2.6c-0.8,0.9-2.4,1.7-2.4,2.6c0,5.3,0.5,10.6,0.6,15.9
			c0,1.5-0.9,3-1.4,4.5c-1.5-0.5-3.3-0.7-4.3-1.7c-8.9-8.5-18.5-16.5-26.4-25.9c-14.2-16.8-27.5-34.3-41-51.6
			c-14.8-18.9-24.2-40.5-31.8-63c-0.5-1.6-0.9-3.2-1.5-4.8c-3.9-10-7.3-20-4.9-31c1.3-6.1-1.7-9-7.4-10.7c-7.5-2.3-14.8-5.5-22-8.6
			c-5.2-2.2-7.2-6.9-7.2-12.1c0-2.9-0.5-6.9,5.2-6c2.4,0.4,3.1-1.5,0.5-3.5c-3.5-2.6-8.6-3.6-8.6-9.7c0-4.6,0.8-8.5,5.6-9.1
			c5.5-0.7,6.7-4.4,8.3-8.5c3.6-8.8,5.8-17.6,2.3-27.1c-0.9-2.4-0.4-5.2-0.5-7.9c-0.1-5,0.6-10.1-0.3-15
			c-6.1-32.9-0.9-65.9,1.7-98.5c2.1-27.4,11.8-53.9,24.5-78.7c3.2-6.2,7-12.2,9.3-18.8c5.7-16.3,17.7-28.7,26.2-43.3
			c1.1-1.9,3.2-4.2,5.1-4.5c7.3-0.9,8-5.6,8.7-11.6c2-16.2,9.1-30.5,18.6-43.6c1.9-2.6,3.3-5.5,5.1-8.2c0.7-1,1.8-2.6,2.7-2.6
			c12.3,0.1,21.4-10.1,33.5-10.3c4.4-0.1,4.3-2.8,4.3-6.1c0.1-14.1,4.6-18.4,18.9-17.1c3.7,0.3,5.6-0.5,7.1-3.5
			c1.4-2.7,2.8-5.3,4.5-7.8c2.8-4.4,7-6.7,12-4.8c5.4,2.1,9.6,0.7,14.1-2.1c6.2-3.8,12.6-7.4,19-11c2-1.2,3.9-2.9,6.1-3.4
			c11.6-2.6,19.2-11.2,28.2-17.9c16.6-12.4,35.1-22.2,54.7-28.3c36.6-11.3,73.5-21.5,110.6-30.8c56.6-14.1,114.3-18.2,172.5-14.5
			c17.9,1.1,35.7,3.8,53.5,6c2.3,0.3,4.6,2.1,6.6,3.7c1.2,1,1.4,3.2,2.6,4.2c2.4,2,6.3,5.5,7.6,4.8c3.1-1.8,6.5-5.2,7.4-8.6
			c17.5-67.6,43.8-132,68.9-196.9c13-33.5,24.3-67.7,37.1-101.3c14.9-39.2,31.4-77.9,45.7-117.3c12.4-34.1,22.6-68.9,34.1-103.4
			c5.1-15.5,10.5-30.8,16.5-46c8.7-22.3,18-44.3,25.6-67.7c-2.6,2.6-5.2,5.3-8,7.8c-18.6,16.6-37.3,33.2-56,49.9
			c-2,1.8-4.6,3.3-5.7,5.5c-3.5,7.5-9.5,9.3-17,9.4c-4.2,0.1-8.4,1.5-12.5,2.6c-6.6,1.9-9.4,0.5-8.3-6.3s-2.1-7.8-7.1-8.5
			c-2-0.3-4-0.7-5.8-1.4c-7-2.7-8.1-7.5-2.1-11.5c20.5-13.7,35.7-32.9,53.6-49.3c34.3-31.4,71.1-59.3,111.9-81.7
			c2.4-1.3,5.6-2.2,8.4-2c7.3,0.4,14.5,1.7,21.8,2.3c3.9,0.3,6,2.1,7,5.8c1.3,4.9,1.2,10.9,8.6,11.7c1,0.1,2,3.9,2.4,6.1
			c2.8,16.9,5,33.8,8.2,50.7c5.7,30.7,11.8,61.4,18.1,92.1c1.2,6.1,3.4,12.1,5.8,18c4.1,10.2,4.3,12.9-4.7,18.3
			c-6.8,4-14.3,8.1-23.1,5c-4.3-1.5-6.5-4.1-7.1-8.5c-0.6-4.6-1.5-9.2-2.5-13.7c-1-4.1-1.7-8-6.8-10.1c-2.8-1.1-4.9-5.3-6.1-8.6
			c-9-24-22.3-46.3-27.4-71.7c-0.3-1.5-1.5-2.9-2.2-4.4c-1,1.5-2.4,2.8-3.1,4.4c-19.5,46.4-36.2,93.8-51.3,141.8
			c-7.2,23.1-17.8,45.3-26.6,67.9c-18.5,47.1-36.8,94.2-55.4,141.3c-8.7,21.9-17.9,43.7-26.7,65.6c-5.6,13.8-10.9,27.8-16.5,41.7
			c-9.6,23.7-19.8,47.2-29,71.1c-8.8,22.6-16.8,45.6-24.9,68.5c-1.8,5-2.7,10.3-3.6,15.5c-0.3,2,0.2,4.6,1.3,6.3
			c2.5,3.7,2,7.2-0.7,10c-3.9,4-1.7,5.5,2.1,6.8c14.5,5.1,28.9,10.2,43.4,15.1c8.5,2.9,17.1,5.3,25.6,8.1
			c12.2,4,22.9,10.9,32.5,19.2c15,13.1,29.7,26.6,44.5,40c0.5,0.4,0.9,1,1.5,1.4c26,17.2,42.8,42.4,59.1,68
			c23.3,36.6,44.3,74.4,62.1,114c11.9,26.5,19.7,54.5,24.2,83.3c3.3,21,5.3,42.3,8.2,63.4c3.6,26.3-1.6,51.7-6.5,77.2
			c-6.3,33.4-19.1,64.4-32.9,95.1c-4.3,9.7-10.5,18.5-16.2,27.5c-7.3,11.6-14.8,23-22.3,34.3c-3.7,5.5-6.8,10.4-0.1,16.3
			c1.5,1.3,1.3,6.7-0.2,8.8c-6,8.4-12.3,16.6-19.4,24c-15.9,16.6-31.6,33.4-48.6,48.9c-12.2,11.1-26.2,20.5-39.8,29.9
			c-11.8,8.1-24.2,15.3-36.4,22.9c-1.6,1-3.3,2.2-4.5,3.7c-0.4,0.5,0.6,2.3,1.3,3.4c0.1,0.2,1.7-0.5,2.5-0.9
			c1.9-0.9,3.7-2.7,5.5-2.7c11.1,0.4,21.9,2.8,31.5,8.6c11.3,6.8,12.6,16,2.5,24.6c-5.4,4.7-8.3,9.8-10.5,16.2
			c-1,2.8-3.5,5.4-6.1,7.2c-23.4,16-49.5,20.3-77.3,17.3c-27.2-2.9-54.3-5.5-81.5-8c-6.9-0.6-14-0.5-21-0.1
			c-7.6,0.5-8.1,1.2-7.4,8.4c1.2,13.5,2.7,27,4.2,40.5c0.3,2.2,1,4.7,2.4,6.3c6.9,7.5,5.6,15.1,1,22.9c-2,3.4-4.2,6.4-2.9,11
			c0.5,1.8-1.5,4.8-3.1,6.7c-1.4,1.7-3.8,2.8-5.9,3.6c-13.2,5.4-26.2,11.4-39.6,15.9c-13.6,4.6-27.7,2.2-41.6,0.7
			c-33.4-3.5-66.8-7.6-100.4-10.3c-8.6-0.7-17.6,2.6-26.3,4.7c-6.1,1.5-12,4.1-18,6.1c-5.9,1.9-10.7,4.4-12.4,11.4
			c-1.4,5.5-4.4,5.6-9,2.5c-9-6.1-11.2-13.7-9-24.6c2.6-12.6,2.4-25.8,3.8-38.7c2.5-23.2,5-46.3,7.9-69.5c0.8-6.3-1.3-8.6-7.2-10.3
			c-29.4-8.5-59-16.7-88-26.4c-27.6-9.2-53.6-22.1-76.4-40.5C207.3,2475.1,205.8,2470.9,204,2468.2z M247.4,1987
			c-0.7-2.8-1.4-5.5-2.1-8.3c-0.3,0.1-0.8,0.3-0.8,0.3c0.9,2.6,1.9,5.2,2.9,7.8c0.2,0.6,0.1,1.5,0.5,1.8c1,0.7,2.2,1.1,3.3,1.7
			c-0.7-0.9-1.2-2-2-2.8C248.8,1987.1,248,1987.2,247.4,1987z M28.9,2138.5c6,0,6-4.8,7.1-8.8c0.5-0.5,1.1-0.8,1.4-1.4
			c8.2-17.5,16-35.2,32.8-46.6c0.7-0.5,0.9-1.6,1.3-2.5c-1.2-0.3-2.5-1-3.6-0.8c-7.1,1-8.3,0.3-8.2-6.9c0.3-12.3,6.1-22.2,13.8-31.3
			c6-7,12-14.1,17.3-21.6c3.7-5.3,6.2-11.6,9.4-17.3c2.3-4,4.3-8.6,7.6-11.6c6-5.2,11-13,21-10.6c0.5,0.1,1.3-0.9,1.9-1.3
			c-0.6-0.8-1-2.1-1.7-2.2c-5.3-0.9-7.1-3.8-6.3-9.2c0.3-1.9-1.5-4.4-2.7-6.3c-4.6-7.3-9.1-14.7-14.1-21.7c-3.4-4.8-6.9-9-1.4-14.6
			c0.6-0.6-0.3-2.8-0.5-4.2c-1.1,0.4-2.7,0.4-3.4,1.2c-8.9,10.3-19.7,19.6-26,31.3c-9,16.5-15.3,34.6-21.7,52.4
			c-7,19.7-6.7,40.4-7.6,61.1c-0.9,19.7,1.1,40.1-8.9,58.5c-0.8,1.5-0.1,3.9-0.1,5.9c-2.4,2.9-4.8,5.8-7.1,8.8
			c-0.7,2.6-1.4,5.2-2.1,7.8c0.6,0.1,1.3,0.1,1.9,0.2C28.9,2144,28.9,2141.3,28.9,2138.5z M492.9,2188.7c2.1-0.9,4.2-1.8,6.4-2.5
			c1.2-0.4,2.8-0.1,3.9-0.7c2.2-1.2,4.3-2.8,6.4-4.2c-4,0.9-8.2,1.5-12,3c-1.8,0.7-3,3.1-4.6,4.6c-2.5,0-4.9,0-7.4,0
			c0.1,0.7,0.1,1.4,0.2,2.1C488.1,2190.2,490.5,2189.5,492.9,2188.7z M159.8,1971c-2.5,1.5-4.9,3.1-7.4,4.6c2.5,1.3,4.4,1.5,6.3,1.3
			c7.8-0.8,1.6-3.8,0.9-5.9c-1.2-2.2-2.5-4.4-3.7-6.6c6.1-2.2,1.8-4.6,0-6.6c-2.1-2.3,3-6.4-2.1-7.7c-1-1.6-1.5-4-3-4.7
			c-6.5-3.2-10.4-8.3-12.1-15c-2.9-11.2-5.6-22.4-7.8-33.7c-1.3-6.8-1.5-13.8-2.1-20.8c-4.8,16.4,2.6,32.1,1,48.9
			c-3.4-6-6.8-12.1-10.2-18.1c2.7,18,12.4,32.5,23.5,46.3c-0.7-3-1.3-6-2.1-9.6c5,2.5,9,4.5,13.1,6.5c-1.2,4.4-2.9,8.7-3.5,13.1
			c-0.2,1.8,1.4,4.5,3,5.8C155.2,1970.1,157.8,1970.3,159.8,1971z M238.9,1968.2c5-0.8,9.8-2.5,10.7-7.9c0.1-0.8-6.4-2.8-9.9-4.3
			c0.7-1.1,1.7-3.2,2-3.1c9,2.7,12.2-4.5,16.4-9.7c0.8-1,0.6-2.8,0.8-4.2c-1.4,0.8-3.8,1.4-4.1,2.6c-0.9,3.5-3.9,3.7-6,5.5
			c-4.5,3.8-8.9-0.7-12.8,1.2c-2.1,1.1-4.2,3.1-5.6-0.1c-0.8-1.7-0.6-4.6,0.3-6.3c1.8-3.1,4.6-5.7,6.7-8.7c2.9-4.3,5.6-8.7,8.3-13.2
			c1.3-2.1,2.3-4.2,3.5-6.4c2.1,1.3,4.9,2.1,6.2,4c1.9,2.9,3.8,4.7,7.2,3.2c5.2-2.3,11.3-12.5,8.6-17.4c-4.4-8.1-1.3-15.4-0.6-23.1
			c0.8-8-1.7-16.5,4.1-23.8c0.5-0.6-0.7-3.2-1.7-4.1c-4.1-3.4-9-2-11.9,2.7c-1.3,2.2-2.9,4.4-4.8,6.2c-1.8,1.7-3.2,1.4-3.9-1.6
			c-1.6-6.2-2.4-6.2-7.4-2.7c-1.8,1.3-4,2.9-6.1,2.9c-12.5,0.5-22.1,7.6-32.2,13.6c-11.1,6.6-15.5,5.5-20.2-6.2
			c-1.9-4.8-5.2-8.9-9.9-8.2c-2.2,0.3-4.3,6.1-5.2,9.7c-1.4,6.1-1,12.6-2.7,18.5c-0.8,2.8-0.7,4.2,0.1,6.9
			c1.6,5.9,5.1,11.9-0.7,18.2c-1.9,2.1-0.6,7.4-0.4,11.3c0.2,3.4,1.6,5.1,5,2.5c5.3-4.1,8.4-0.7,11.3,3.3c2.9,4,5.7,8.2,8.7,12
			c0.6,0.7,3.3,0.7,3.4,0.6c1.4-5,5-4.7,8.8-3.6c3.8,1.2,7.6,2.2,11.1,4.1c1.2,0.6,1.1,3.4,1.7,5.3c-1.8,0.3-3.6,1-5.3,0.9
			c-3-0.1-5.9-0.9-8.8-0.8c-0.5,0-1.1,2.3-1.6,3.5c6.6,0.6,7.8,12.7,17,7.8c0.5-0.2,2.7,1.5,3,2.6c0.5,1.8,0,4,0.3,5.9
			c0.4,2.4,1.3,4.7,1.9,7.1c0.4-2.3,1.2-4.6,1.2-6.9c0-9.3,5.9-14.5,14.6-12.6c-0.7,2.3-1.7,4.7-2,7.1
			C237.8,1964.3,238.6,1966.2,238.9,1968.2c-2.7,2.8-5.5,5.8-8.3,8.7C234.5,1975.2,240.1,1974.4,238.9,1968.2z M164.3,1842.7
			c7.9-7.5,18-12.5,24.7-21.5c-6.7,1.4-12.9,4.8-17.4-3.5c-0.8-1.4-4.2-3.1-4.7,1.4c-0.7,7.8-5.8,11.4-12.9,12.9
			c-5-2.3-8.4-1.8-7.7,4.9c0.8,8.9,1.4,17.8,2.5,26.7c1.3,10.8,4.6,21.7,4.2,32.4c-0.3,6.8,2.3,10.3,5.7,14.4
			c0.1-6.9-0.9-13.4-1.2-20c-0.7-16.5-3.2-33.3,7.2-48.1L164.3,1842.7z M216.5,1781.1c-3.3,2.5-6.5,5.2-9.9,7.4
			c-0.8,0.5-3.2,0.3-3.7-0.5c-5.3-7.1-8.3-7.5-11.6-0.1c-3.2,7.2-8.4,8.6-15.2,8.6c-8.2,0-9.4,1.5-8.5,9.9c0.1,1.1,1,2.1,1.5,3.1
			c0.7-0.6,1.5-1.1,2.1-1.8c2.3-2.4,4.5-4.8,6.8-7.2c1.7,2,3.4,4.1,5,6.1c0.2,0.2,0.4,0.7,0.7,0.7c8.9-0.4,10.2,6.8,12.9,12.7
			c1.2,2.5,2.9,6.9,4.3,6.9c6.2-0.1,11.3,6.5,18.2,2.7c3.1-1.7,7.1-1.9,11.9-3.1c-5.3,0-9.3,0.4-13.3-0.1c-3.9-0.5-7.7-1.6-11.4-2.7
			c-3.8-1.2-5.5-4.7-4.1-7.9c2.7-6.2,0.5-8.3-5.4-9c-1.1-0.1-2.4-1.4-2.9-2.5c-1-2.3-2.4-4.9-2-7.1c0.2-1.1,3.9-2,6.1-2.2
			c6.2-0.7,9.9,4.5,14.8,6.9c3.5,1.7,5.8,3.6,1.5,7.1c-0.7,0.6-0.6,2.2-0.8,3.4c3.2,0.2,6.4,0.7,9.5,0.3c1.3-0.1,2.5-2,3.4-3.3
			c0.3-0.5-0.5-2.4-1.1-2.6c-6.8-2-7.6-7.2-7.8-13.1C217.2,1789.5,216.7,1785.3,216.5,1781.1c4.8-0.6,9.6-1.1,14.5-1.8
			c0.7-0.1,1.3-1.2,1.9-1.9c-1.2-0.2-2.4-0.9-3.4-0.6C225.1,1778,220.8,1779.6,216.5,1781.1z M717.9,2319.9l-0.3-0.3
			c-0.5,1.6-0.5,3.7-1.5,4.6c-3.9,3.3-2.6,5.2,1.3,6.8c1.8,0.7,3.5,1.9,5.4,2.4c11.6,2.7,23.2,6.3,34.9,7.5
			c10.4,1.1,21.3,0.2,31.7-1.4c7.8-1.1,15.1-6.3,22.8-6.8c13.8-0.9,27.8,0.2,41.7,0.6c1.5,0,3.1,1.1,4.5,2.1
			c9.9,7.1,19.6,14.4,29.6,21.2c2.1,1.4,5.6,1.3,8.3,0.7c0.9-0.2,1.4-3.8,1.7-5.9c1.2-8.1,0.8-16.8,3.7-24.3
			c3.6-9.4,8.7-18.8,15.2-26.3c3.7-4.2,7.4-7.9,9.2-13.3c1.5-4.7,3.4-9.3,5-14c0.3-0.9,0.4-2,0.1-2.9c-0.7-2.4-19-9.2-20.9-7.8
			c-7.6,6.1-8.1,15.5-10.7,23.8c-0.2,0.6,1.4,2.2,2.5,2.6c2.4,0.9,3.4,1.5,1.3,4c-1,1.2-1.1,3.4-1.2,5.1c-0.3,4.6-0.2,4.5-4.9,2.4
			c-0.7-0.3-2.2,0.3-2.9,1c-6.4,6.7-12.6,8.8-22.6,5.6c-13.8-4.4-27.5-13.7-43.3-6.9c-0.2,0.1-0.6-0.1-0.9-0.2
			c-6.2-2-12.4-4-18.7-5.9c-15.6-4.7-31.2-9.4-46.8-14.1c-3.4-1-6-1.4-4.5,3.8c0.2,0.8-1.8,2.2-2.8,3.4c-0.6-1.2-2-2.7-1.7-3.7
			c1.1-3.9-1.6-4.4-4.1-5.3c-4.4-1.5-8.6-3.3-13-4.8c-3.9-1.3-7.9-2.9-12-3.2c-4.9-0.4-10,0.5-14.9,0.8
			c-13.9,0.8-21.1,9.4-21.4,23.2c-0.3,13.4,7.8,21.4,16.6,29.2c2.4,2.1,4.9,2.6,5.7-1.6C711.1,2316.3,714.4,2317.8,717.9,2319.9z
			 M152.9,2243.6c1.8,2.2,4,4.3,5.4,6.7s3.6,6.4,2.7,7.7c-4.8,6.8-3.3,14.1-2.6,21.2c0.9,9.2,2.6,18.5,4.6,27.6
			c4.5,20.6,8.1,41.1,3.6,62.3c-0.7,3.5,1,7.5,1.6,11.3c0.3,1.9,1.6,4.7,0.8,5.6c-6,7-2.2,14.7-1.7,21.8c1.6,23.4,1,46.6-7,69
			c-4,11.4-6.8,22.9-7.1,35c-0.1,3.2-2.4,6.3-3.4,9.6c-0.3,1,0.4,3.3,0.6,3.3c9.2,0,18.5,0,27.7-0.4c1.2,0,3.2-1.6,3.4-2.6
			c0.7-5.5,1.1-11.1,1.1-16.6c0-9-0.6-18-0.6-27c0-2.1,0.6-5.5,1.9-6.1c6.9-3.2,6.9-9.6,7.2-15.3c0.7-14.3,1.2-28.6,0.7-42.9
			c-0.2-4.8-3.5-9.6-5.5-14.4c-1.5-3.5-3.3-6.9-4.5-10.6c-0.3-1.1,0.8-3,1.8-3.9c0.5-0.4,3.1,0.4,3.4,1.2c2.8,6.3,3.8,3.7,4.3-0.8
			c2-16.9,4.1-33.7,5.9-50.6c0.3-2.9,0.3-6.1-0.3-9c-3.6-15.9-6.1-32.2-11.5-47.5c-4.8-13.8-9.2-27.6-12-41.9
			c-0.1-0.3-0.1-0.7-0.2-1c-4.3-11.8-4.2-24.1-4-36.5c0.2-13.6-0.1-27.3-1-40.9c-1.7-26.2-5.5-52.2-5.1-78.6
			c0.1-10.3-3.3-20.9-6.5-30.9c-6.1-19.2-18.9-34.2-32.9-48.2c-4.3-4.3-6.6-4.3-10.2,0.6c-1.5,2.1-1.9,4.9-3.3,7.2
			c-4.4,7.4-8.4,15.1-13.6,21.8c-2.9,3.8-8.7,5.6-3,11.4c0.6,0.6,0.2,2.7-0.3,3.7c-7.6,15.1-9.8,33.1-23.1,45.4
			c-0.9,0.9-1.3,2.3-1.9,3.5c-13.3,26.1-26.1,52.4-29.7,82.1c-0.6,5,1.4,15.3-10.4,12.1c-0.4-0.1-1.2,0.6-1.6,1.1
			c-5.4,6.3-10.1,12.9-12,21.2c-0.2,1.1,0.5,2.4,0.7,3.5c0.9-0.8,2.2-1.4,2.5-2.4c1.6-4.9,3.1-4.7,7.4-1.8
			c7.4,5.1,13.1,12.1,23.5,14.2c12.5,2.6,24.5,3.8,37,2.5c4.9-0.5,9.8-0.9,14.7-1.1c8.6-0.3,17.3-0.1,25.9-0.8
			c11.3-0.9,11.2-1.2,11-12.2c-0.2-10-0.3-20-0.4-30l-0.2,0.2c8.5-4.4,8.9-6.4,6-15.7c-2.3-7.2-6.3-4.8-10.8-3.3
			c-1.8,0.6-4,0.5-5.9,0.3c-6.2-0.5-11.7,1.2-17,4.6c-5.6,3.6-11.3,7-17.2,10.1c-1.1,0.6-4.6-0.6-4.6-0.9c0.1-4.4-2-9.3,2.5-13
			c3.3-2.7,6.5-5.7,9.7-8.6c16.3-15.5,18.8-38.7,6-57c-4.4-6.3-8.8-12.6-13.9-18.2c-4.3-4.7-4.8-9.1-2-14.5c1.4-2.6,2.5-5.4,3.6-8.2
			c1.7-4.3,3.5-4.6,5.6-0.3c3.2,6.2,6.5,12.3,9.5,18.7c0.6,1.4,0.4,4.7-0.3,5c-5.9,2.5-1.7,5.1-0.2,7.5c5.2,8.9,11.2,17.3,15.3,26.6
			c4.6,10.3,5.6,21.2-2.1,31c-1.2,1.5-3.4,2.3-5.2,3.2c-1.2,0.5-2.6,0.5-4,0.8c1.4,1.1,2.7,2.7,4.3,3.1c1.4,0.3,3.2-0.7,4.8-1
			c4.1-0.8,8.6-3,12.4-2.1c6,1.3,7.8-0.1,7.3-5.8c-0.1-0.9,0.6-1.8,0.9-2.7c0.9,0.7,2.5,1.2,2.7,2.1c1.5,5.4,2.7,10.9,4.1,16.4
			c0.7,2.9,0.8,7.6,2.4,8.2c7.3,2.7,3.5,6,1.5,9.7c-1,1.9-1.8,4.3-1.8,6.5C151.3,2204.6,152.1,2224.2,152.9,2243.6
			c-1.1-4.3-2.7-8.7-3.2-13.2c-1.1-9.7-1.7-19.5-2.5-29.3c-0.3,11.6-0.3,23.1-0.3,34.6c0,2-0.1,4.4,0.9,5.8
			C148.7,2242.8,151.1,2243,152.9,2243.6z M293.3,1957.2c7.6-0.8,8.4-6.6,8.1-12.3c-0.3-6.2,1.1-9.7,7.8-11.5
			c5.3-1.4,9.7-5.4,15.9-4.4c1.9,0.3,4.6-1.1,6.3-2.5c10.7-8.4,23.8-8.8,36.3-11.2c2.4-0.5,6.4-1.3,7,3.3c0.6,4.8-3.4,5.2-6.4,6
			c-5.8,1.5-11.9,1.9-17.6,3.7c-4.5,1.4-8.4,5.1-12.9,6c-4.8,0.9-7.5,3-9.9,7.1c-5.9,10.4-12.4,20.5-18.4,30.8
			c-1.9,3.3-3.1,4.1-5.2,0.3c-0.3-0.5-3.1-0.2-3.1,0.1c-0.8,4.5-1.5,9-1.9,13.6c-0.1,1.1,1.1,2.2,1.7,3.4c0.9-0.9,1.9-1.7,2.6-2.8
			c1.5-2.4,2.8-4.9,4.2-7.3c0.7,0.3,1.4,0.6,2.2,0.9c-1.5,4.1-3.1,8.1-4.6,12.2c-0.7,2-1.6,4.1-1.8,6.2c-0.8,8.2,3.8,17.4-4.7,24.1
			c-0.2,0.2-0.1,0.6-0.2,0.9c-1.5,6.3-7.8,12.4-13.4,11.8c-4.2-0.5-9.6-1.4-10,2.9c-0.6,5.8-7.6,3.5-8,8.5c-0.2,1.8-2.2,3.3-3.4,5
			c-1.8-1.7-4.7-3.2-5.2-5.2c-2.2-9.1-12-9.4-16.9-15.2c-0.3-0.3-1.5-0.4-1.8-0.2c-6.8,5.8-11.8-0.4-17.1-2.8
			c-10.2-4.6-18.9-11.3-24.5-21.3c-1.9-3.4-5.3-7.3,0.3-11.1c1-0.7,0.4-3.6,0.6-5.5c-1.5,0.7-3,1.1-4.4,2
			c-4.6,3.1-11.5,1.8-10.9-2.1c1.4-8.3-4.5-2.8-6.6-4.2c-1.8,4.1-5,2.1-7.6,1.6c-3.7-0.8-6.4-1.3-9.1,3.1c-1.3,2.1-7,2-10.7,1.9
			c-3.5-0.1-4.5-3.4-2.8-5.8c6.2-8.4-0.4-5.3-4-4.6c-2.3,0.4-4.4,1.4-6.5,2.1c1.5-3.2,3-6.4,5.5-11.6c-5.8,4-6.6,7.4-5.3,11.6
			c-0.5,1.4-0.8,3.7-1.7,4c-6.6,2-6.2,4.7-1.3,8.5c1.8,1.4,3.4,3.2,5,4.9c25.2,25.9,39.3,56.4,39.4,93c0,13.9,1.5,27.8,2.2,41.8
			c0.3,5.2,1.6,9,6.8,12.1c9.4,5.6,11.2,15.4,6.2,25.7c-0.5,1.1-0.1,2.6-0.1,3.8c0.7,5.9,0.9,11.9,9.3,12.3c1.3,0.1,2.8,2.8,3.5,4.6
			c3.8,10.1,11.1,14.1,21.7,12.5c1.3-0.2,2.6,0.2,4,0.2c5.6,0,10.8-0.3,15.8,3.9c4.1,3.5,19-0.9,22.3-5.5c0.7-1,1.1-3.4,0.4-4.1
			c-5.8-6.3-11.6-12.7-17.9-18.4c-4-3.6-14.6-3.1-17.3,1.1c-4.9,7.7-11.5,4.8-17.9,4.3c-0.7-0.1-1.4-1.1-2.1-1.7
			c0.7-0.6,1.3-1.5,2-1.6c3.6-0.3,7.2-0.4,10.9-0.6c-11.9-1.1-24.1-0.3-35-6.7c17.9-10.4,37.5-12.8,57.7-11.4
			c7.6,0.6,13,4.9,17,10.9c4.3,6.3,8.4,12.4,14.5,17.5c8.9,7.3,14.7,17.9,24.8,24.3c1.9,1.2,3.4,5.6,2.7,7.8c-0.6,1.9-4.4,3.5-7,4.1
			c-2.8,0.6-5.9-0.3-8.9-0.2c-1.2,0.1-3.1,0.9-3.4,1.8c-4,12.4-8.8,24.7-9.4,38c-0.2,4-1.7,5.1-4.8,3.2c-2.6-1.7-6.2-4.1-6.5-6.6
			c-0.8-7-4.8-7.5-10.3-7.6c-10.2-0.2-14-3.7-17-14c-0.3-1.2-1.3-2.4-2.2-3.3c-4.5-4.3-9-8.5-14.7-13.8c0,4.2,0.6,6.7-0.1,8.7
			c-4.6,13,0,24.8,4.9,36.4c5.8,13.8,12.3,27.3,18.7,40.9c4,8.4,6.9,17.9,12.9,24.7c12.7,14.5,28.7,24.6,47.9,29.1
			c19.1,4.5,38.2,5,57.3,0.4c7.4-1.8,13.6,0.4,20,3.6c4.3,2.1,9.1,3.8,13.8,4.2c4.9,0.4,6.2,2.2,6.2,6.8c0,27.3,0.1,54.6,0.3,81.8
			c0.1,16,0.3,32,0.3,47.9c0,11.2-0.5,22.4-0.8,33.7c0,1.3-0.1,2.6-0.5,3.8c-1.4,5-3.7,9.9-4.3,14.9c-2.8,26.8-5.1,53.7-7.6,80.5
			c-0.3,3.4,0.5,5.1,4.4,4.1c5.2-1.3,10.4-2.6,15.6-3.1c15.9-1.6,31.8-2.9,47.7-4c9.9-0.7,20-1.9,29.8-1.3c12.9,0.7,25.8,3,38.7,4.5
			c17.8,2.1,35.6,4.6,53.5,5.8c10.3,0.7,20.6-1.4,29.1-8.4c6.8-5.5,6.8-5.4,2.2-13.3c-0.8-1.4-1.7-3.1-1.6-4.6
			c0.8-5.8-2.7-6.6-7.1-6.8c-6.3-0.3-12.6-0.8-18.9-1.3c-6.6-0.6-13.3-0.8-19.9-2.1c-10.4-2-14.4-7.7-14.7-18.2
			c-0.1-3.1-1-6.5-2.6-9c-4.4-6.4-5.6-13.2-5.2-20.8c0.5-8.3,0.1-16.7,0-25c-0.2-34-0.2-67.9-0.7-101.9c-0.3-18.9-1.7-37.9-2.3-56.8
			c-0.4-13-0.1-26-0.2-39c-0.1-5.9,3.8-7.1,8.5-7.6c5.7-0.6,5.5,4,5.8,7.3c0.4,4.6-0.4,9.3-0.1,14c1,18,2.8,35.9,3.1,53.8
			c0.5,29.6,0,59.3-0.1,88.9c0,12-0.7,24,0,35.9c0.6,11.9-1.6,23-5.8,34c-1.2,3-1.3,6.4-1.8,9.7c-0.1,0.4,0.9,1,1.4,1.5
			c0.8-6.8,9-4.8,11.8-10.2c2.5-4.7,7.6-8.4,12.3-11.4c21.6-13.5,45-22.3,70.7-21.5c23.6,0.7,47.2,3.3,70.7,5
			c16.3,1.2,32.5,3,48.8,3.3c20.9,0.3,38.8-8.5,55.1-20.8c6.3-4.8,5.9-8.7-1.2-11.8c-6.3-2.7-13.2-4.7-20-5.8
			c-7.9-1.2-16-0.9-23.9-1.7c-19.5-1.9-38.1-6.4-53.1-20.3c-4.9-4.5-7.7-9.8-5.2-15.9c3.7-9.2,0.1-16.6-3.7-24.4
			c-12-24.1-24.6-48-35.6-72.6c-6.8-15.1-14.7-29-27.2-40.1c-1.9-1.6-2.5-4.7-3.6-7.2c3.1-0.6,6.4-2,9.3-1.5c2.6,0.5,5,3.1,7.2,5.1
			c10.9,10.1,19.4,21.8,24.9,35.8c10.3,25.7,23.2,50.2,37,74.1c3.5,6.1,3.3,6,7.9,1.6c8.6-8.3,17.6-16.2,26.1-24.6
			c1.6-1.6,2.4-4.4,2.7-6.7c0.8-6.6,0.7-13.3,1.7-19.8c2.4-15.8-2.8-24.5-18-29.2c-7-2.2-14-4.1-18.9-10.4c-1.3-1.7-4.5-2-6.9-3
			c-3-1.2-6.2-2-8.9-3.6c-3.4-1.9-6.2-5-9.6-6.7c-10.1-5.1-18-12.8-24.5-21.7c-14.5-19.6-6.4-46.4,16.2-55c1-0.4,1.8-1.3,2.8-2
			c-0.7-0.6-1.4-1.3-2.2-1.8c-10.4-5.8-20.9-11.7-31.4-17.4c-4.7-2.6-9.5-4.6-15-0.9c-1.8,1.2-5,0.7-7.5,0.6
			c-10.6-0.8-21.2-1.8-31.8-2.5c-3.2-0.2-7.9,2-9.4,0.5c-2.2-2.1-2-6.6-2.9-10c-1-4.1-0.8-7,4.9-7.1c6.3-0.1,12.5-1.2,20.6-2.1
			c-18.3-10-34.7-18.8-51-27.9c-12.7-7-26.2-9.4-40.5-7.5c-5.2,0.7-10.5,2.6-8.2-6.4c0.5-1.9-1.2-4.4-2-6.6c1.5-1.1,2.8-2.7,4.4-3.1
			c19.4-4.7,38.2-3.8,56.1,6.3c13.3,7.6,26.8,14.8,40.2,22.3c14.2,8,28.3,16.2,42.3,24.5c1.8,1.1,4.6,3.6,4.3,4.6
			c-1.4,4.5,2.2,4.9,4.3,6.6c13.7,11.3,30.1,16.7,46.8,21.4c13.1,3.7,26.2,7.5,39.1,11.9c10,3.4,19.6,7.9,29.6,11.3
			c11.3,3.9,22.6,8.7,34.3,10.1c17,2,33.4,5.2,49.4,11.5c6.6,2.6,18-4.6,19.8-11.5c1.5-5.7,6.1-10.7,2.5-17.5
			c-0.7-1.3,2.8-4.9,4.6-7.2c1-1.3,2.7-1.9,3.7-3.2c6.5-8.1,10.3-8.5,18.9-2.1c0.7,0.5,1.7,0.8,2.6,1c7.6,1.6,10.8,4.8,10.4,11.9
			c-0.3,5.3-1.9,10.5-2.5,15.7c-0.6,4.7,0.2,8.5,2.6,13.3c4,8.1,4.7,2.8,6.1-0.3c5.2-11.2,10.3-22.4,15-33.7
			c17.9-42.8,30-87.1,29.7-133.6c-0.2-34.7-6.1-68.9-13.6-102.8c-4.9-22.2-11.2-43.9-21.3-64.3c-9.9-20-20.2-39.8-31.1-59.2
			c-12.8-22.6-25.1-45.7-40.2-66.7c-25.8-35.8-57.3-66.6-92.3-93.6c-4.2-3.2-8.7-6.6-13.5-8.4c-24-9-48.2-17.5-72.3-26.2
			c-3.4-1.2-5.2-0.6-6.6,3.2c-3.7,10.3-7.3,20.4-6.8,31.7c0.2,5.5-2.4,11-3.4,16.6c-0.7,4.4-3.6,6.6-6.9,9.1
			c-8.7,6.6-17.2,13.5-25.4,20.7c-6.5,5.7-12.2,12.3-18.5,18.2c-2.1,2-5,4.2-7.6,4.3c-9.6,0.4-15.7,6.4-22.3,12.1
			c-16.1,13.9-32.3,27.7-48.5,41.4c-2.8,2.3-7.4,3.6-8.5,6.4c-0.8,2,2.8,5.7,4.2,8.8c0.5,1.1,0.5,2.6,0.7,3.9c0.7,5.3,2,10.5,2,15.8
			c0,7.6-0.8,15.2-1.3,22.7c-0.4,5.6-1.4,11.1-1.4,16.7c0,13.3,1.1,26.7,0.5,40c-0.7,17.6-1.6,35,0.5,52.6
			c1.4,11.5,1.9,23.1,2.2,34.7c0.4,15-3.6,29.1-10.6,42.1c-2.2,4.1-6.1,8-10.2,10.4c-6.6,3.8-8.8,3-11.2-4.1
			c-3.5-10.3-5.9-21.1-8.8-31.6c-0.8-2.8-1.3-5.8-2.4-8.5c-2.3-5.5-5.7-10.6-7.2-16.3c-6.3-23.8-11.8-47.8-18.2-71.6
			c-2.8-10.6-6.6-21-11.1-31c-4.5-10.2-8.3-11.2-17.6-5.4c-8.2,5.1-15.8,11-23.7,16.6c-3.4,2.3-6.3,6.2-11,1.3c-2-2-5-0.5-3.7,2.9
			c1.9,4.9-1.1,7.8-3.9,10.4c-6.4,5.8-13.5,10.8-19.7,16.7c-5.4,5.2-12.1,10.7-14,17.3c-1.5,5.1-0.8,6.9-6.1,4.1
			c-1-0.5-2.5,0-3.7,0.1c0.4,1.1,0.6,2.4,1.3,3.2c11.1,12.2,15.9,26.4,16,43c0.9-5.2,1.9-10.3,2.8-15.4c4,7.7,1.8,15.7,0.2,23.4
			c-2.7,13.5-8.4,26.6-3.1,40.8c0.8,2,0.4,4.7-0.1,6.9c-1.5,7.5,0.6,13.4,6.3,18.6c2.6,2.3,4.1,6,5.7,9.3c4,8.4,8,16.7,11.5,25.3
			c1.4,3.5,3.6,4,6.6,4.8c7,1.8,14,3.9,20.7,6.6c3.5,1.4,6,2,9.9,0.1c14.2-7,28.8-13.3,43.3-19.8c10.2-4.6,20.3-6.3,29.7,1.9
			c-0.9,0.6-1.8,1.3-2.7,1.9c5.1,6.2-0.1,9.2-4.3,11.4c-7.3,3.8-14.8,7.8-22.7,9.7c-5.6,1.3-11.2,9.5-17.7,1.7
			c-4.2,2.6-8.4,5.1-12.6,7.7v-0.6c-4.5,0.4-9.6-0.3-13.4,1.5c-4.6,2.1-7.4,1.6-11.7-0.9c-10.5-6.1-21.9-10.3-34.2-7.8
			c-6,1.2-9.1-0.3-13.6-4.1c-5-4.2-2.4-4.7,1.1-6.2c1.5-0.7,3.3-0.9,4.7-1.8c1.3-0.8,2.2-2,3.3-3.1c-0.9-0.9-2-2.7-2.7-2.6
			c-4.4,0.7-4.8-2.3-5.7-5.3c-2.3-8.1-5.9-15.4-12.4-21.2c-2.1-1.9-3.3-5.7-3.5-8.7c-0.9-16.5-0.7-33.1-2.4-49.5
			c-0.6-6.3-0.2-11.7,2-17.4c4.9-12.2,3.5-23.3-5.2-33.6c-3.8-4.5-7.4-9.6-9.6-15c-1.2-3,0.5-7.4,1.4-11c0.5-1.8,2.2-3.2,3.3-4.8
			c7.9-11.2,11-26.9,27.9-29.6c0.5-0.1,0.9-0.9,1.4-1.4c16.7-17.1,38-27.9,57.3-41.5c18.4-12.9,30.3-11.2,42.7,12.6
			c1.1,2.1,1.7,4.3,2.6,6.5c2.2,5.1,4.5,10.1,6.8,15.2c3.2-19.4,4.4-38.5,5.7-57.6c1.2-16.9,2.2-33.8,3.7-50.7
			c0.8-9.3,2.4-18.5,3.5-27.7c0.2-1.9-0.5-3.8-0.8-5.7c-1.8,0.5-3.8,0.7-5.3,1.6c-6,3.5-12.7,6.4-17.8,11.1
			c-11.2,10.3-28.7,13.1-34.9,29.2c-0.1,0.3-0.5,0.5-0.8,0.6c-6,3.2-12.1,6.4-18.1,9.7c-11.4,6.1-23,11.9-34.1,18.6
			c-4.3,2.6-7.5,7.2-10.9,11.2c-2.8,3.3-4.9,7.1-7.7,10.3c-1,1.2-3.4,1.2-5.1,1.7c0.2-1.5,0-3.3,0.6-4.6c3-6.7,6-13.3,9.3-19.8
			c5.1-10.4,12.9-18.3,23.1-23.9c4.5-2.5,4.5-2.5,10.9,1.1c3.2,1.8,12.8-1.7,12.6-5.3c-0.3-8.6,5.9-7.6,10.7-8
			c6.6-0.6,6.6-0.1,9.1-8.4c-8.6,7.5-18.9,7-28.6,8.8c-1.3,0.3-2.8-0.4-4.2-0.6c0.8-1,1.5-2.2,2.5-2.9c10.4-7.7,20.8-15.4,31.2-23.1
			c0.5-0.4,1.1-0.7,1.7-1c13.8-7.9,27.8-15.7,41.5-23.8c7.1-4.3,13.7-9.5,20.8-13.7c2.5-1.5,5.9-1.2,8.9-1.7c0.2,2.8,1.4,6,0.6,8.5
			c-5.2,15.9-6.8,32.4-8,49c-0.5,7.3-1.6,14.6-2.2,21.9c-0.1,1,1,2.1,1.6,3.1c0.8-0.5,1.7-0.9,2.4-1.6c6.1-5.7,11.9-11.6,18.2-17
			c13.1-11.2,26.4-22.3,39.9-33.2c14.7-11.8,26.6-28.8,48.8-27.4c1,0.1,2-1.3,3.1-1.9c-1.3-0.4-2.7-1-4-1.3
			c-3.6-0.8-10.3-0.2-8.4-5.6c4.1-11.5-2.5-14.7-10.9-17.5c-0.3-0.1-0.7-0.3-0.8-0.5c-0.9-1.9-2.8-4.1-2.3-5.6
			c0.7-2.1,3.5-5.5,4.7-5.2c9.2,2.1,12.5-4.1,15.8-10.5c2.1-4.1,10.4-8.7-1.4-11.1c-0.9-0.2-1.9-2-2-3.2c-0.3-4.6-1.9-3.8-4.8-1.7
			c-9.4,6.8-12.8,17.3-14.7,27.6c-2.9,15.4-13.4,23.8-25.3,31.1c-10.2,6.2-21,11.5-31.7,17.1c-4.7,2.5-9.6,4.7-14.5,6.6
			c-0.8,0.3-3.4-1.6-3.5-2.5c-0.7-8.8,12.9-23.4,20.7-21c5.6,1.7,8.9-0.4,12.9-2.4c5.3-2.7,10.8-5.4,15.7-8.7
			c3.1-2.1,6.3-5.1,7.7-8.4c3.8-8.8,5.9-18.4,10.1-27.1c2.8-5.7,7.3-11,12.1-15.2c3.7-3.2,8.2-4.9,10.4-10c1.2-2.8,4.6-4.7,7.2-6.7
			c2.9-2.2,17.8,0.1,17.1,1.6c-1.5,3.1-4.9,5.4-7.4,7.9c8.3,3.2,8.6,3.3,12.9-3.9c1.9-3.1,2.2-7.1,3.4-10.7c0.4-1.2,1.1-2.3,1.9-3.3
			c0.7-0.9,1.7-1.5,2.5-2.3c-1.2-0.4-2.3-1.1-3.5-1.2c-18.2-1.9-36.4-5.5-54.6-5.4c-64.5,0.4-128.1,9.3-191.3,21.8
			c-28.3,5.6-55.2,14.6-80.9,27.8c-17.8,9.1-36.2,17-54,26c-7.3,3.7-13.6,9.5-20.8,13.6c-6.4,3.7-6.9,4-2.3,9.6
			c1.6,2,4.2,3.2,5.9,5.2c2.9,3.5,8,7.7,7.5,10.9c-0.8,4.8,1.6,6.6,3.6,9.4c5.6,7.9,11.2,15.7,16.9,23.4c2.7,3.6,5.4,6.9-1.2,9.5
			c-1.1,0.4-1.3,4-1.2,6.1c0.3,6.4,3.2,13.8,0.9,18.9c-2.9,6.5-1.5,9.7,2.9,13.6c5.7,5,9.6,12.1,6.4,18.6
			c-4.8,9.7-0.8,17.5,2.5,25.5c2.5,6,3.1,11.4-0.6,16.9c-1.7,5-1.6,9.6,2,13.4c0.7-0.2,1.4-0.4,2.1-0.6
			C296.2,1965.9,294.7,1961.6,293.3,1957.2z M392.5,2433c-0.6,0-1.2-0.1-1.8-0.1c0.3-4.3,0.6-8.6,0.7-13c0.1-4.7,0.2-9.4-0.3-14
			c-0.3-2.7-1-5.9-2.6-8c-7.9-10.2-16.9-17.8-30.7-10c-0.3,0.2-0.7,0.1-1,0.1c-26.3,1.3-51.7-1.7-75.5-14.5
			c-20.1-10.8-35.3-25.7-43.9-47.1c-4-9.9-8.7-19.4-13.1-29.2c-4.6-10.3-9.1-20.7-13.5-31.1c-4.5-10.5-2.3-22.6-8.4-33.1
			c-2.8-4.9-1.2-12.4-1.1-18.7c0.1-7.8-3-14.2-7.6-20.1c-0.4-0.5-3.1,0-3.1,0.2c-1.1,12.6-2.3,25.2-2.8,37.8
			c-0.1,1.8,2.3,4.8,4.1,5.5c5.9,2.2,9.1,6.6,8.2,12.2c-3,18.9,0.3,36.5,5.3,54.8c5,18.4,6.6,37.8,2.7,57.3
			c-4.4,21.9-2.8,44.3-3,66.6c-0.1,10.5,4.3,16.9,12.6,21.9c14.3,8.5,28.6,17,42.7,25.7c35.3,21.8,74,34.6,114.5,42.5
			c10.6,2,11.7,1.3,12.4-9.4C389.5,2484.1,390.9,2458.5,392.5,2433z M764.7,2352.3c0.3,1.6,0.3,2.1,0.5,2.2c1.1,0.7,2.2,1.4,3.3,2
			c9.7,5,15.3,12.3,14.4,23.8c-0.8,10.3-1,20.6-1.2,30.9c-0.1,4.3,0.4,8.6,0.6,12.8c0.7,10.4,6.8,20,4.3,31
			c-0.8,3.4,2.1,2.3,3.8,1.3c11.2-7.2,23.3-13.3,33.3-21.9c20.6-17.8,40-37,60.2-55.4c4-3.6,2.9-6.4-0.2-8.7
			c-5.6-4-12.9-6.4-17.4-11.3c-10.1-11.1-22.4-14.5-36.5-14.2c-8.2,0.2-16.5,0.2-24.6,1.3C791.6,2347.9,779.3,2356,764.7,2352.3z
			 M117.1,2344.9c-0.4,0.3-0.7,0.6-1.1,0.8c-1.1-1-2.5-1.8-3.4-2.9c-15.7-19.6-28.1-41-37-64.6c-3.1-8.3-7.5-16.1-11-24.2
			c-1-2.4-1.4-5.1-1.8-7.7c-0.4-2.6-0.1-5.4-0.7-7.9c-0.3-1.3-1.8-2.4-2.8-3.5c-1,1.1-3.1,2.4-2.9,3.2c1.3,5.3-6,12.5,3.4,16.1
			c0.8,0.3,0.6,2.6,1.3,3.6c7.5,9.6,3.6,24.3,14.5,32.3c0.7,10.1,7.7,17.3,12.3,25.5c5.7,10.1,12.2,19.8,19.2,28.9
			c9.3,12.1,19.4,23.6,29.3,35.2c3.4,4.1,7.1,7.9,10.8,11.7c0.8,0.9,2.2,1.2,3.3,1.8c0.5-1.4,1.3-2.8,1.4-4.3
			c0.9-12.2,1.2-24.5,2.5-36.7c1.8-17.6-2-34.4-5.6-51.3c-2-9.4-4.2-18.7-5.7-28.2c-1.6-10.2-2.5-20.4-3.6-30.6
			c-0.4-3.9-2.1-4.8-6-4.4c-15.9,1.5-31.8,2.6-47.7,4c-8.1,0.7-8.3,1-6.1,9c8.1,29.6,18.2,58.4,33.2,85.4
			C114.5,2339.1,115.7,2342,117.1,2344.9z M538.5,1909.4c-0.6-0.2-1.2-0.4-1.8-0.6c0-6.3,0.1-12.6-0.1-19c0-1.2-0.8-2.4-1.3-3.6
			c-1.3,0.7-2.9,1.2-4,2.2c-2.5,2.2-4.5,5-7.2,6.9c-4.1,2.9-4.7,6.4-4.6,11.2c0.3,12.6,0.8,25.3-0.5,37.9c-2,20.1,0.2,39.9,2.3,59.8
			c1.9,18.1,7.4,35.7,7.4,54.3c0,11.6,2.7,23.1,4.4,34.7c0.2,1.3,1.4,2.5,2.1,3.8c0.7-1,1.8-2,2.1-3.1c3.4-15.4,3.6-31,1.7-46.6
			c-1.4-11.2-3.6-22.4-3.9-33.7c-0.6-18.9,0.3-37.8-0.2-56.7c-0.2-8.9-1.5-17.9-3.7-26.6c-1.4-5.5-1-9.6,2.6-13.7
			C535.8,1914.4,537,1911.8,538.5,1909.4z M618.6,2578.2c0.2,0,0.4,0,0.7,0c0-4-0.1-8,0-11.9c0.2-4.8-2.2-6.1-6.2-4.4
			c-10.9,4.7-21.9,9.3-32.5,14.7c-4.2,2.2-7.4,6.6-10.8,10.2c-0.9,1-1.8,3.4-1.3,4c2.9,3.4,3.3,8.9,10.1,8.9
			c11.9,0.2,23.8,1.6,35.6,2.9c4.9,0.6,5.7-1.6,5.3-5.6C619.2,2590.8,618.9,2584.5,618.6,2578.2z M675.1,1749.7
			c-0.9-11.4-3.8-13-14.1-7.8c-1.2,0.6-2.3,1.3-3.5,1.9c-4.9,2.5-5.4,5.8-2.3,10.3c6,8.9,4.6,13.3-5.2,18.6
			c-0.9,0.5-1.1,2.5-1.6,3.7c1.1,0,2.4,0.4,3.3-0.1c4.4-2.3,8.4-5.9,13-7c5.4-1.4,7.8-4.4,8.8-9.2
			C674.2,1756.7,674.5,1753.2,675.1,1749.7z M760.7,2486.2c-6.3-7.3-8.5-13.6-7-21c0.4-1.8-0.3-3.9-0.7-5.9
			c-0.6-3.2-1.3-6.3-1.9-9.5c-2.7,2.1-5.2,4.5-8,6.4c-6.6,4.4-3.9,12.3-7.1,17.9c3.5,2.2,6.9,4.7,10.7,6.6
			C750.4,2482.5,754.5,2483.8,760.7,2486.2z M934.1,2309c-1-0.6-2.1-1.8-2.7-1.6c-3.2,1.3-7.9,2.2-9.2,4.7
			c-5.3,10.3-9.7,21.1-14.3,31.8c-0.3,0.7,0.4,1.8,0.7,2.8c1-0.5,2.4-0.8,2.9-1.7c6.9-10.5,13.7-21.1,20.5-31.7
			C932.9,2312.1,933.3,2310.8,934.1,2309z M174.6,1951.6c0.3,0.6,0.7,1.2,1,1.9c1.3-0.5,3.8-1.2,3.7-1.4c-0.5-3.2-1.4-6.3-2.1-9.5
			c-1.5,1.7-2.9,3.6-4.7,5c-1.5,1.1-4.1,1.1-5.3,2.4c-2,2.3-4.4,5.2-4.6,8c-0.1,2.2,2.5,6,4.5,6.5c7.3,1.6,14.9,2.2,22.4,3
			c0.9,0.1,2.2-0.5,2.7-1.2c1.4-2,2.4-4.2,3.6-6.3c-2,0.1-4.4-0.4-6,0.5c-5.8,3.2-11.5,4.8-17-0.1c-1.5-1.3-2.5-3.3-3.8-4.9
			C170.9,1954.1,172.8,1952.9,174.6,1951.6z M121.4,1856.2c4.7-4.9,9.2-9.1,13.1-13.8c1.6-1.9,3.1-4.8,2.9-7.1
			c-0.1-1.4-3.7-4-5.1-3.7c-8.8,2.2-16.6,11.6-17.9,20c3.6-3,7.5-6.5,11.6-9.6c0.9-0.7,2.8-0.3,4.2-0.4c-0.5,1.1-0.8,2.4-1.6,3.4
			C126.1,1848.5,121,1850.4,121.4,1856.2z M142.5,1881c0.7,0,1.3,0,2,0c-1.3-6.7-2.4-13.4-3.8-20.1c-0.9-4.3-2-8.5-3-12.7
			c-2.2,4.2-4.7,8.3-6.5,12.7c-0.7,1.8-0.6,4.7,0.5,6.3C135,1872,138.9,1876.4,142.5,1881z M644.6,1771.7c-0.3-5-5.6-9.9-7.5-8.7
			c-5,3.2-7.6,12.1-4.8,17.3c0.5,0.9,2.4,1.9,2.6,1.8C638.5,1778.3,642,1774.5,644.6,1771.7z M767.2,2464c1.5-1.4,3.9-2.9,5.1-5
			c1.7-3,2.9-6.4,3.5-9.8c0.9-4.6-3.1-5.7-6.1-5.7c-3.4,0-4.9,2.6-4.3,6.2C766.1,2454.5,766.6,2459.4,767.2,2464z M668.7,1702.1
			c0-0.7,0-1.5,0-2.2c-11.4-1.1-22.8-2.2-34.2-3.4c-0.1,0.9-0.1,1.8-0.2,2.7C645.8,1700.7,656.9,1705.1,668.7,1702.1z M116.5,1898.6
			c1.4-9.4,2.8-19.1,4.2-28.8c0.1-1-0.6-2.1-1-3.1c-0.6,0.6-1.5,1.2-1.8,2C114.7,1878.7,112.7,1888.8,116.5,1898.6z M268.6,1940.2
			c0.1,0.1-0.6-1.1-1.1-1c-0.8,0.1-1.9,0.9-2.1,1.7c-1.2,4,0.7,8.9-3.9,11.8c1.6,1.8,3.3,3.6,4.9,5.4c0.4-1.1,1.1-2.2,1.2-3.3
			C268,1950.2,268.3,1945.6,268.6,1940.2z M213.8,1863c0.5-0.3,1-0.5,1.4-0.8c-2.9-5.4-5.7-10.8-8.8-16.1c-0.6-0.9-2.1-1.5-3.3-1.9
			c-0.8-0.2-1.9,0.2-2.8,0.4c0.2,0.8,0.1,1.9,0.6,2.5C205.2,1852.5,209.5,1857.7,213.8,1863z M492.4,1833c0.5,0.7,1,1.4,1.5,2.1
			c7.6-4.5,15.2-9,22.9-13.6c-0.5-0.8-1-1.6-1.4-2.4C507.7,1823.8,500,1828.4,492.4,1833z M271.5,2033.6c-1.3-1.6-2-2.6-2.8-3.5
			c-0.5,0.9-1,1.9-1.6,2.8c-0.9,1.3-2,2.4-2.9,3.6c-1.1,1.6-2.1,3.2-3.1,4.8c2.1-0.4,4.7-0.3,6.3-1.5
			C269.2,2038.4,270.1,2035.8,271.5,2033.6z M261.9,2005.6c-0.9-0.9-1.5-1.4-2.1-2c-1.7,2.3-3.5,4.5-4.9,7c-0.3,0.6,0.9,2,1.5,3
			C258.1,2011,259.9,2008.4,261.9,2005.6z M179.7,1854.2c1.6,0.2,2.4,0.5,3.1,0.4c1.6-0.1,3.2-0.5,4.8-0.5c1.5,0,3,0.4,4.5,0.7
			c-1.2-1.8-1.9-4.2-3.6-5.3c-1.1-0.7-3.5,0-5.1,0.7C182.1,1850.8,181.3,1852.4,179.7,1854.2z M172.2,1973.5c-2,2.7-3.4,4.8-4.9,6.8
			c0.8,0.3,1.9,1.1,2.5,0.9c2.1-0.9,3.9-2.2,5.9-3.3C174.7,1976.7,173.7,1975.5,172.2,1973.5z M275.1,1926.5
			c-0.4-0.6-0.7-1.2-1.1-1.8c-1.2-0.1-2.6-0.7-3.4-0.2c-1.8,1.1-3.3,2.6-5,4c1.5,0.4,3.2,1.4,4.6,1
			C272,1929,273.5,1927.5,275.1,1926.5z M545.7,1694.7c0.1,0.1,0.2,0.2,0.2,0.2c4.5,0,9,0,13.6,0c0-0.1,0-0.2,0-0.2
			C554.9,1694.7,550.3,1694.7,545.7,1694.7z M29,2108.8c-1,2.2-1.9,3.3-2.1,4.6c-0.2,1.2,0.3,2.4,0.4,3.7c1.1-1.7,2.3-3.3,3.3-5
			C30.8,2111.6,30,2110.6,29,2108.8z M210.5,2236.9c1.6-1.9,2.9-2.9,2.9-3.6c-0.1-1.3-1.1-2.6-1.8-3.9c-0.7,1-1.6,2-1.9,3.1
			C209.4,2233.4,210,2234.5,210.5,2236.9z M225.7,1994.6c1.6-1.2,3.1-2.1,3-2.3c-0.7-1.8-1.7-3.5-2.7-5.1c-0.1-0.1-1.9,0.6-1.8,0.7
			C224.4,1990,225,1992,225.7,1994.6z M632.6,2614.2c-1.1,1.6-1.8,2.5-2.5,3.5c1.1,0.5,2.2,1.5,3.2,1.4c0.8-0.1,1.5-1.4,2.2-2.2
			C634.7,2616.1,633.9,2615.4,632.6,2614.2z M684.6,1695.3c1.1-0.4,1.7-0.6,2.2-0.9c-0.9-1.6-1.7-3.3-2.7-4.8
			c-0.1-0.1-1.3,0.6-1.9,0.9C683,1692.2,683.9,1693.8,684.6,1695.3z M140.6,1908.8c-0.3,0.1-0.6,0.2-1,0.2c0.1,0.9,0,1.8,0.3,2.6
			c0.4,1.2,1.1,2.2,1.6,3.3c0.1-0.9,0.3-1.8,0.2-2.7C141.5,1911.1,141,1909.9,140.6,1908.8z M86.1,2035c-1.2,2.2-2,3.1-2.2,4.2
			s0.3,2.3,0.4,3.5c1-1.3,2.1-2.5,2.8-3.9C87.4,2038.3,86.8,2037.3,86.1,2035z M90.9,1899.4c0.1-0.5,0.5-1,0.4-1.4
			c-0.3-1.1-0.8-2.2-1.4-3.3c0,0-0.9,0.4-1.4,0.5C89.3,1896.6,90,1898,90.9,1899.4z M73.2,1930.4c-0.9-1-1.4-1.6-2-2.2
			c-1,1-2.1,1.9-2.8,3c-0.3,0.4,0.5,1.5,0.8,2.3C70.3,1932.5,71.6,1931.6,73.2,1930.4z M280.1,1943.1c-1.1,1.3-2,2.1-2.4,3.1
			c-0.1,0.3,1.5,1.7,1.7,1.6c1-0.5,1.9-1.4,2.5-2.3C282.1,1945.3,281.1,1944.3,280.1,1943.1z M184.1,2199.4c0.3,0.9,0.7,1.9,1.1,2.9
			c0.1-0.6,0.4-1.3,0.4-1.9c0-1.3-0.2-2.6-0.4-3.9C184.8,2197.4,184.5,2198.2,184.1,2199.4z M238.5,2174.8c-0.4,0.1-0.8,0.1-1.2,0.2
			c0.3,0,0.7,0,1,0c0.4,0,0.8-0.1,1.2-0.2C239.2,2174.8,238.8,2174.8,238.5,2174.8z M209.2,1980.7c-0.7-0.4-1.4-0.8-2.2-1.2
			c0.1,0.3,0,0.7,0.2,0.9c0.6,0.5,1.4,0.9,2.1,1.4C209.2,1981.5,209.2,1981.2,209.2,1980.7z"/>
		<linearGradient id="SVGID_2_" gradientUnits="userSpaceOnUse" x1="999.6001" y1="438.1707" x2="1890.1002" y2="438.1707">
			<stop  offset="0" style="stop-color:#F13DD2"/>
			<stop  offset="1" style="stop-color:#5644C2"/>
		</linearGradient>
		<path class="st1" d="M1871.5,82.8c0.2,0.2,0.3,0.6,0.5,0.6c3.8,0.7,7.6,1.3,11.4,2c-3.7,2.2-7.2,5.4-11.3,6.5
			c-14.6,4-24,10.9-22,28.2c0.7,5.8-2.6,12.2-4.1,18.3c-0.3,1.3-1.4,2.8-1.1,3.7c3.2,7.6-1,13.6-4,19.7c-1,2-3.1,3.4-4.7,5.1
			c-1.7-1.8-4-3.3-5-5.4c-3.2-6.9-5.8-14.2-8.9-21.2c-3.2-7.1-3.8-7.5-9.2-2.2c-7.4,7.2-14.1,14.9-20.8,22.7
			c-3.8,4.5-6.7,10.2-13.7,9.5c-4.4-0.4-7.9-7.6-7.9-15.7c0-11.7,0.3-23.3,0.5-35c0.1-8,0.2-15.8-7.1-21.8
			c-6.7-5.4-11.1-6.1-19.1-1.5c-1.3,0.7-3.8,1.4-4.5,0.7c-6.3-6.1-12.8-1.6-18.8-0.3c-55.7,12.1-108.8,31.4-158.3,59.6
			c-54.7,31.2-107.4,65.4-155.2,106.7c-36.3,31.4-69.1,66.4-100.9,102.4c-32.9,37.3-62.9,76.8-90.4,118.1
			c-22.5,33.8-44.1,68.2-66.1,102.3c-19.3,30-34.2,62.4-50.4,94.1c-5.4,10.6-11.8,20.7-17.1,31.4c-15.3,30.9-30.3,61.9-45.2,93
			c-9.5,19.8-18.5,39.8-28.1,59.5c-2.3,4.7-5.8,8.7-10.4,12.5c1.1-3.2,2-6.4,3.3-9.5c10.7-24,21.4-48.1,32.2-72
			c30.6-67.8,64.1-134.1,102.1-198c27.6-46.3,58.5-90.6,88.3-135.6c30-45.4,64.6-87.3,101.3-127.4c37.8-41.3,77.7-80.7,122.7-114.3
			c56.5-42.2,115.9-79.9,181.5-106.2c31.8-12.7,65.2-21.3,97.9-31.4c6.5-2,12.6-4,16.9-9.7c6.1-8.3,14.5-9.5,24.1-7.6
			c17.5,3.6,17.2,3.3,24.7-13.4c5.7-12.7,11.8-25.3,18.5-37.6c2.5-4.5,6.6-8.3,10.6-11.8c3.6-3.1,7.1-2,8.3,2.5
			c1.3,4.4,1.7,9.1,2.1,13.8c1,10.9,1.5,21.9,2.5,32.8c0.8,8.4,1.6,9.6,10.3,10.5c8.2,0.8,16.6,0.4,24.9,0.4c4,0,8-0.5,12-0.3
			c2.1,0.1,4.2,1.3,6.3,2c-0.9,2-1.3,4.4-2.8,5.8C1882.2,74.3,1876.7,78.5,1871.5,82.8z M1793.6,103.2c0.2,4.2,0.3,9.9,0.8,15.5
			c0.1,1.8,1.2,3.5,1.8,5.2c1.5-1.2,3.1-2.3,4.4-3.7c4.5-4.9,8-11.5,13.5-14.5c7.5-4.1,12.2-9.3,16.4-16.5c3.1-5.4,2.5-8.8-1.5-11.3
			c-5.6-3.6-6.7-8.6-7.4-14.4c-1.1-9.2-2.6-18.4-4-27.6c-0.2-1.1-1-2.1-1.5-3.1c-0.9,0.9-2.1,1.6-2.6,2.7
			c-4.3,9.3-8.5,18.7-12.6,28.2c-1.8,4.1-2.8,7.2,3.9,8.2c6.6,0.9,9.6,8.9,5.4,13.6c-3.4,3.8-7.7,7.3-12.3,9.2
			C1793.8,96.2,1792.4,97.9,1793.6,103.2z M1797.8,64.3c-0.5-0.9-0.8-1.4-1.1-1.9c-1.2,1.5-2.4,2.9-3.4,4.5
			c-0.1,0.2,0.9,1.2,1.5,1.8C1795.9,67.2,1796.9,65.7,1797.8,64.3z"/>
		<linearGradient id="SVGID_3_" gradientUnits="userSpaceOnUse" x1="1118.676" y1="682.8018" x2="1653.045" y2="682.8018">
			<stop  offset="0" style="stop-color:#F13DD2"/>
			<stop  offset="1" style="stop-color:#5644C2"/>
		</linearGradient>
		<path class="st2" d="M1587.8,464.3c-1.9,12.3-3.6,24.8-5.9,37.1c-0.4,2.4-2.8,5.7-4.8,6.2c-3.4,0.9-8.6-4.6-8.2-7.9
			c3-23.7,5.9-47.5,9.4-71.2c0.7-4.8,2.9-9.6,5.3-13.9c1-2,4.1-4.2,6.1-4c1.7,0.2,4,3.3,4.5,5.5c2.8,12.3,5.2,24.7,7.5,37.2
			c2.3,12.8,4.4,25.6,6.4,38.4c0.7,4.6,3,6.3,7.4,5.9c6-0.7,11.9-1.3,17.9-1.9c2.3-0.2,4.6-0.5,7-0.5c12-0.1,14.4,3.2,10.7,14.5
			c-0.4,1.2-1.4,3.1-1,3.4c6.8,5.5,0.1,6.6-2.9,8.6c-9.6,6.6-19.5,12.8-28.7,19.9c-3.1,2.4-5.4,6.8-6.2,10.7
			c-3.2,15.6-5.6,31.4-8.6,47.1c-1.9,9.8-4.2,19.5-7.2,29c-0.9,2.9-4.5,5-6.9,7.5c-2.9-3.4-7.2-6.4-8.4-10.3
			c-1.4-4.5-0.1-9.9-0.1-14.9c0.2-19.7,0.7-39.3,0.3-58.9c-0.2-11.8,1.2-10-10.6-13.2c-10.2-2.8-20.8-4.1-31.3-5.7
			c-2-0.3-4.3,0.8-6.5,1.5c-1.9,0.6-3.7,1.3-5.5,2c0.7-1.5,1.6-3,2.1-4.6c0.2-0.7-0.3-2.4-0.7-2.4c-1.2-0.2-2.6-0.2-3.7,0.3
			c-9.6,4.7-19.1,9.4-28.5,14.4c-34.7,18.4-69.8,36.2-101.6,59.5c-26,19.1-51.3,39.2-75.8,60.2s-48.2,43-71.1,65.7
			c-22.9,22.8-42.2,48.9-59.8,76c-14.8,22.8-23,48.6-32.7,73.7c-5.5,14.2-11.1,28.5-16.1,42.9c-2,5.9-2.4,12.4-3.9,18.5
			c-0.8,3.5-2,6.9-3.7,10c-1.6,2.9-4,6-7.9,3.5c-3.4-2.2-6.6-3.8-5-9.9c22.3-85.8,63.9-160.6,126.1-223.7
			c56.3-57.1,117.1-108.9,185.5-151.1c29.1-18,60.1-33.1,90.2-49.5c3.2-1.8,7-3.1,9.4-5.6c5-5.4,11-6.2,17.8-7
			c7.9-0.9,13.5,0.6,19.9,5.7c5.3,4.2,13.5,4.6,20.4,6.7c2.8,0.8,6.1,0.9,8.2,2.6c6.8,5.5,8.3,6,15.6,1c1.5-1,2.6-2.7,3.8-4.1
			c-1.7-0.6-3.4-1.4-5.2-1.7c-2.9-0.5-6.1-0.1-8.9-1c-5.1-1.7-5.9-6-6.5-11.1c-1.6-12.8-4.2-25.5-6.5-38.3
			C1588.8,465.9,1588,464.9,1587.8,464.3z"/>
		<linearGradient id="SVGID_4_" gradientUnits="userSpaceOnUse" x1="963" y1="545.6389" x2="1320.5" y2="545.6389">
			<stop  offset="0" style="stop-color:#F13DD2"/>
			<stop  offset="1" style="stop-color:#5644C2"/>
		</linearGradient>
		<path class="st3" d="M963,884c2.2-12.4,3.8-24.3,6.4-36c3.6-16.2,8.1-32.3,11.9-48.5c4.6-19.6,8.8-39.4,13.5-59
			c7.2-30.3,20.7-58.3,31.4-87.3c14.8-40.5,35.1-78.4,54-116.9c12.5-25.4,22.7-51.9,35.6-77.1c19.9-38.8,40-77.6,62.2-115.1
			c12-20.2,28.1-37.9,43.1-56.2c24.4-29.6,51.8-56.4,80.4-82c3.5-3.1,6.8-5.5,11.4-4.8c2.7,0.4,7.6,1.6,7.6,2.5
			c0,3.3-0.6,7.4-2.7,9.9c-3.8,4.6-8.8,8.1-13.2,12.2c-42.3,38.9-82.2,80-113.9,128.1c-29.3,44.6-52.3,92.8-75.7,140.7
			c-17.6,36.2-36,72.1-53.4,108.4c-19.7,41.2-36.1,83.7-50.8,126.9c-13.4,39.4-23.2,79.7-31.6,120.4c-2.1,10.1-4.6,20.1-7,30.1
			c-0.4,1.6-0.4,3.5-1.3,4.8c-1.5,2-3.6,3.5-5.5,5.2C964.6,888.3,963.8,886,963,884z"/>
		<linearGradient id="SVGID_5_" gradientUnits="userSpaceOnUse" x1="1508.0615" y1="731.3381" x2="1628.9167" y2="731.3381">
			<stop  offset="0" style="stop-color:#F13DD2"/>
			<stop  offset="1" style="stop-color:#5644C2"/>
		</linearGradient>
		<path class="st4" d="M1550.8,707.8c3.2-11.9,6.3-23.8,9.8-35.5c0.7-2.2,3.3-3.9,5-5.8c1.8,1.7,4.3,3,5.2,5.1
			c4.4,10.7,8.4,21.6,12.5,32.4c3.9,10.3,4.2,10.6,15.2,9.3c5.6-0.7,11.2-1.9,16.8-2.7c2.2-0.3,5.2-0.8,6.7,0.4
			c2.9,2.2,6.5,5.3,6.9,8.4c0.3,2.3-3.5,6.1-6.3,7.8c-6.8,4.1-14.1,7.5-21.4,10.8c-4.7,2.2-7,5-7.3,10.6
			c-0.7,13.2-2.3,26.4-3.4,39.7c-0.4,5.2-4.4,6.4-8.1,7.6c-4,1.2-6.4-1.7-7.4-5c-1.9-6-3.3-12.2-4.8-18.3c-0.8-3.2-1.4-6.5-2-9.8
			c-0.8-4.1-2.9-5.3-5.9-1.9c-3,3.5-5.6,7.4-8.4,11.1c-2.4,3.1-4.5,6.8-7.5,9.2c-8.2,6.4-15.5,3.1-16.8-7.2
			c-1.2-9.2-2.4-18.5-3.6-27.7c-1-7.7-1.8-15.2-12.1-16.4c-4.4-0.5-6.6-4.6-5.6-9.1c0.9-4.2,3.4-7.3,8.3-7.1c1.7,0,3.4-0.2,5,0.3
			c14.9,4.4,29.8,8.9,44.7,13.6c1.6,0.5,2.8,2.9,3.9,4.5c0.8,1.1,1.1,3.4,1.7,3.4c1.4,0,3.4-0.6,4.2-1.7c1-1.5,2-3.9,1.5-5.4
			c-2.3-6.2-5.1-12.3-7.9-18.3c-0.4-1-2.1-2-3.1-1.9c-0.9,0.1-1.7,1.6-2.4,2.6c-0.3,0.5-0.1,1.4-0.5,1.9c-1.3,2-3.7,5.9-4,5.7
			c-3.3-1.6-8.2-1.8-8-7.4c0-1,0-2,0-3C1551.4,708,1551.1,707.9,1550.8,707.8z M1555,737.1c-8.7,0-10,0.6-9.5,5.1
			c0.2,2.4,1.5,4.6,2.4,7c3.4-3.4,6.9-6.7,10.3-10.1C1556.7,738.2,1555.4,737.3,1555,737.1z"/>
		<linearGradient id="SVGID_6_" gradientUnits="userSpaceOnUse" x1="1282.0596" y1="142.1662" x2="1377.7297" y2="142.1662">
			<stop  offset="0" style="stop-color:#F13DD2"/>
			<stop  offset="1" style="stop-color:#5644C2"/>
		</linearGradient>
		<path class="st5" d="M1325.8,174c8.3-0.5,16.6-0.5,24.8-1.8c9.5-1.5,10-2.1,9.4-11.6c-1.3-18.2-3.3-36.4-4.9-54.6
			c-0.2-2.5-0.3-5.7,1-7.4c5.2-6.6,9.9-5.6,12.5,2.7c1.7,5.7,2.8,11.6,3.5,17.5c2,16.1,3.8,32.3,5.6,48.4c0.5,4.4-5.4,9.9-11.3,11
			c-1.5,0.3-3.3,0.3-4.2,1.2c-6.1,6.3-13.9,7.1-22,7.6c-15.3,0.8-30.5,1.9-45.8,2.8c-0.7,0-1.4,0.4-2,0.2c-3.4-1.4-7.5-2.2-10-4.6
			c-1.8-1.8,3.9-8.6,8.6-9.2c11.5-1.6,23.1-2.7,34.6-4C1325.7,172.9,1325.8,173.5,1325.8,174z"/>
		<linearGradient id="SVGID_7_" gradientUnits="userSpaceOnUse" x1="840.0969" y1="692.4407" x2="856.4093" y2="692.4407">
			<stop  offset="0" style="stop-color:#F13DD2"/>
			<stop  offset="1" style="stop-color:#5644C2"/>
		</linearGradient>
		<path class="st6" d="M856.3,690.7c0,8.3,0.1,16.5,0,24.8c0,2.3-0.1,4.9-1.2,6.7c-1.3,2-3.6,4.2-5.7,4.6c-1.5,0.3-4-2-5.3-3.7
			c-1.1-1.4-1.6-3.7-1.7-5.6c-0.9-16.9-1.7-33.7-2.3-50.6c-0.2-5.6,9.5-11.1,14.1-7.9c1.6,1.1,2.3,4.6,2.2,6.9
			c-0.1,8.3-0.6,16.5-1,24.8C855.7,690.7,856,690.7,856.3,690.7z"/>
		<linearGradient id="SVGID_8_" gradientUnits="userSpaceOnUse" x1="1365.8628" y1="232.6081" x2="1383.9678" y2="232.6081">
			<stop  offset="0" style="stop-color:#F13DD2"/>
			<stop  offset="1" style="stop-color:#5644C2"/>
		</linearGradient>
		<path class="st7" d="M1383.2,233c-0.9-4.2-1.4-6.3-2.2-9.7c-0.6,2.1-1,2.9-1,3.7c-0.4,9.9-0.8,19.9-1.3,29.8
			c-0.1,2.3-0.3,4.7-1.1,6.9c-0.5,1.3-2,3.1-3.1,3.1c-1.2,0-3-1.6-3.5-2.8c-1.1-3.4-2.1-7-2.4-10.6c-1-15.2-1.6-30.5-2.7-45.7
			c-0.3-4.3,1.2-7.2,4.9-8.8c4.4-1.8,5.3,1.8,7.2,4.6C1384.5,213,1384.7,213,1383.2,233z"/>
		<linearGradient id="SVGID_9_" gradientUnits="userSpaceOnUse" x1="870.6975" y1="727.5971" x2="922.8807" y2="727.5971">
			<stop  offset="0" style="stop-color:#F13DD2"/>
			<stop  offset="1" style="stop-color:#5644C2"/>
		</linearGradient>
		<path class="st8" d="M887.6,735.9c-5.5-1.2-11.2,2-15.2-3.9c-2.8-4.1-2.2-6.6,2.2-8.5c1.2-0.5,2.5-1,3.8-1.2
			c12.8-1.1,25.7-2.2,38.5-3c1.9-0.1,4.5,1.1,5.7,2.5c0.7,0.9,0,4.1-1.1,5.2c-1.9,2-4.5,4.1-7,4.6
			C905.4,733.6,896.2,734.7,887.6,735.9z"/>
		<linearGradient id="SVGID_10_" gradientUnits="userSpaceOnUse" x1="1217.6609" y1="625.6588" x2="1251.8" y2="625.6588">
			<stop  offset="0" style="stop-color:#F13DD2"/>
			<stop  offset="1" style="stop-color:#5644C2"/>
		</linearGradient>
		<path class="st9" d="M1251.8,605c-1.7,2.9-2.5,5.2-4,6.8c-5.8,6-10.6,12.2-13.3,20.4c-1.9,5.6-6.6,10.4-10.6,15
			c-1.1,1.3-4.1,1-6.2,1.5c0.1-1.8-0.3-3.8,0.3-5.4c3.7-9.8,7.8-19.6,11.5-29.4c2.9-7.7,10-9.1,16.5-11.2
			C1247.3,602.2,1249.6,604.1,1251.8,605z"/>
		<linearGradient id="SVGID_11_" gradientUnits="userSpaceOnUse" x1="1083.4977" y1="823.7458" x2="1112.1" y2="823.7458">
			<stop  offset="0" style="stop-color:#F13DD2"/>
			<stop  offset="1" style="stop-color:#5644C2"/>
		</linearGradient>
		<path class="st10" d="M1112.1,805.1c-2.6,5.7-4.7,10.9-7.2,15.9c-3.4,6.8-6.7,13.7-10.5,20.3c-1.4,2.4-3.8,4.4-6.2,5.8
			c-3.1,1.7-5.2,0.7-4.6-3.3c2.5-15.7,8.9-29.7,18.7-42.1c1.2-1.6,4.6-2.4,6.7-2C1110.3,799.9,1111,803.1,1112.1,805.1z"/>
		<linearGradient id="SVGID_12_" gradientUnits="userSpaceOnUse" x1="1217.6985" y1="1129.3457" x2="1274.6001" y2="1129.3457">
			<stop  offset="0" style="stop-color:#F13DD2"/>
			<stop  offset="1" style="stop-color:#5644C2"/>
		</linearGradient>
		<path class="st11" d="M1229.5,1137.8c-1,0-2,0-3,0c-4-0.2-8.9-0.3-8.8-5.5c0-4.8,4.6-5.8,8.7-6.3c12.1-1.6,24.2-3.1,36.3-4.8
			c2.6-0.4,5.1-1.7,7.7-1.9c1.3-0.1,3.5,0.7,4,1.8c0.5,1.1,0,3.3-0.8,4.4c-1.2,1.5-2.9,3-4.7,3.5c-13,3.6-26,7-39,10.4
			C1229.8,1138.8,1229.7,1138.3,1229.5,1137.8z"/>
		<linearGradient id="SVGID_13_" gradientUnits="userSpaceOnUse" x1="1403.7983" y1="170.2146" x2="1449.6733" y2="170.2146">
			<stop  offset="0" style="stop-color:#F13DD2"/>
			<stop  offset="1" style="stop-color:#5644C2"/>
		</linearGradient>
		<path class="st12" d="M1412.5,177.2c-4.4,0.8-8.8-0.4-8.7-5.1c0.1-2.6,4-7,6.5-7.3c11.4-1.3,23-1.6,34.5-1.8
			c1.7,0,4.4,2.2,4.8,3.9s-0.9,4.5-2.4,5.8c-1.9,1.6-4.6,2.7-7.1,2.9C1431,176.4,1421.8,176.8,1412.5,177.2z"/>
		<linearGradient id="SVGID_14_" gradientUnits="userSpaceOnUse" x1="1189.038" y1="1075.0118" x2="1200.3075" y2="1075.0118">
			<stop  offset="0" style="stop-color:#F13DD2"/>
			<stop  offset="1" style="stop-color:#5644C2"/>
		</linearGradient>
		<path class="st13" d="M1198.7,1068.6c0.5,10.9,1.1,21.9,1.4,32.8c0.1,1.8-0.9,3.6-1.4,5.4c-1.7-1.2-3.5-2.4-5.1-3.7
			c-0.5-0.4-0.6-1.2-0.8-1.8c-4.5-17.3-5-34.8-1.3-52.3c0.4-1.8,1.7-3.6,3.1-4.9c0.9-0.8,2.9-1.1,4-0.7c0.9,0.3,1.8,2.1,1.7,3.3
			c-0.2,7.3-0.7,14.6-1.2,21.9C1199.1,1068.5,1198.9,1068.5,1198.7,1068.6z"/>
		<linearGradient id="SVGID_15_" gradientUnits="userSpaceOnUse" x1="842.9" y1="788.5" x2="860.3807" y2="788.5">
			<stop  offset="0" style="stop-color:#F13DD2"/>
			<stop  offset="1" style="stop-color:#5644C2"/>
		</linearGradient>
		<path class="st14" d="M842.9,784.2c1.9-5.2,4-11.3,6.5-17.3c0.5-1.3,2.5-1.9,3.8-2.9c0.7,1.3,1.5,2.6,2.2,4c1.4,3.2,3.3,6.3,4,9.7
			c0.7,3.7,1.7,10,0.2,10.9c-6,3.4-3.2,8.1-3.7,12.4c-0.4,4-1.4,8-2.1,12c-2.3-3.3-5.6-6.3-6.8-10
			C844.9,797.6,844.3,791.6,842.9,784.2z"/>
		<linearGradient id="SVGID_16_" gradientUnits="userSpaceOnUse" x1="1182.0162" y1="1181.9993" x2="1196.411" y2="1181.9993">
			<stop  offset="0" style="stop-color:#F13DD2"/>
			<stop  offset="1" style="stop-color:#5644C2"/>
		</linearGradient>
		<path class="st15" d="M1184.7,1190.2c-0.8-6.6-1.8-13.1-2.4-19.7c-0.3-2.9-0.7-7,0.8-8.5c2.6-2.4,6.8-3.4,10.4-4.1
			c0.5-0.1,3.1,4.9,2.9,7.4c-1.1,11.8-2.6,23.6-4.4,35.4c-0.3,2.1-2.8,5.4-4.3,5.4c-4.1,0-3.6-3.9-3.7-6.8c0-3,0-6,0-9
			C1184.3,1190.2,1184.5,1190.2,1184.7,1190.2z"/>
		<linearGradient id="SVGID_17_" gradientUnits="userSpaceOnUse" x1="1352.5444" y1="513.3969" x2="1403.2001" y2="513.3969">
			<stop  offset="0" style="stop-color:#F13DD2"/>
			<stop  offset="1" style="stop-color:#5644C2"/>
		</linearGradient>
		<path class="st16" d="M1353.8,524.7c-0.4-1.5-1.7-3.6-1.1-4.6c2.4-4,5.2-7.9,8.4-11.3c1.4-1.5,5-3,6.3-2.3
			c7.5,4.4,13.4-0.9,19.9-2.4c3.9-0.9,7.8-1.7,11.7-2c1.3-0.1,2.8,1,4.2,1.6c-0.7,1.3-1.1,3-2.2,3.9c-1.8,1.5-3.8,2.7-6,3.5
			c-11.5,4.2-23.1,8.3-34.7,12.3C1358.8,523.9,1357.1,524.1,1353.8,524.7z"/>
		<linearGradient id="SVGID_18_" gradientUnits="userSpaceOnUse" x1="1147.7478" y1="721.0266" x2="1172.1171" y2="721.0266">
			<stop  offset="0" style="stop-color:#F13DD2"/>
			<stop  offset="1" style="stop-color:#5644C2"/>
		</linearGradient>
		<path class="st17" d="M1172.1,709.6c-0.9,2.2-1.9,5.3-3.5,8.2c-3,5.5-6,11-9.5,16.2c-1.3,2-3.5,3.9-5.8,4.8
			c-4.5,1.7-6.4-0.1-5.2-4.7c1.7-6.4,4-12.6,5.6-19c1.5-6.3,7-8.5,11.4-11.6C1168.7,701,1172.4,704.1,1172.1,709.6z"/>
		<linearGradient id="SVGID_19_" gradientUnits="userSpaceOnUse" x1="1421.5958" y1="510.2545" x2="1464.7" y2="510.2545">
			<stop  offset="0" style="stop-color:#F13DD2"/>
			<stop  offset="1" style="stop-color:#5644C2"/>
		</linearGradient>
		<path class="st18" d="M1440,502.1c7.5,2.2,13.9,3.7,20,6c2,0.8,3.2,3.7,4.7,5.7c-2.3,1.6-4.7,4.8-6.9,4.6
			c-11.2-0.6-22.3-2-33.4-3.3c-1.1-0.1-2.9-1.6-2.8-2.3c0.2-1.4,1.1-3.2,2.2-3.8C1429.2,506.5,1434.8,504.3,1440,502.1z"/>
		<linearGradient id="SVGID_20_" gradientUnits="userSpaceOnUse" x1="1122.0977" y1="1114.3207" x2="1163.0385" y2="1114.3207">
			<stop  offset="0" style="stop-color:#F13DD2"/>
			<stop  offset="1" style="stop-color:#5644C2"/>
		</linearGradient>
		<path class="st19" d="M1139.8,1107.8c6.6,0.7,13.2,1.4,19.8,2c4.4,0.4,4,2.6,2,5.3c-1,1.3-2.2,2.9-3.6,3.3
			c-10.7,3.5-21.6,3-32.3,0c-1.7-0.5-3.5-3.9-3.6-6.1c-0.1-1.3,2.9-3.7,4.7-4c4.2-0.6,8.6-0.2,12.9-0.2
			C1139.8,1108,1139.8,1107.9,1139.8,1107.8z"/>
		<linearGradient id="SVGID_21_" gradientUnits="userSpaceOnUse" x1="1273.474" y1="564.45" x2="1310.6953" y2="564.45">
			<stop  offset="0" style="stop-color:#F13DD2"/>
			<stop  offset="1" style="stop-color:#5644C2"/>
		</linearGradient>
		<path class="st20" d="M1275.8,581.5c-0.4-0.3-2.1-0.7-2.3-1.5c-0.2-0.9,0.8-2.3,1.4-3.3c7.6-12.5,18.9-20.9,31.2-28.1
			c1.3-0.7,2.9-0.8,4.4-1.2c0,1.9,0.5,4-0.1,5.6c-0.5,1.2-2.5,1.8-3.8,2.8c-4.3,3.4-9.3,5.7-10,12.5
			C1296.3,572.3,1281.1,581.4,1275.8,581.5z"/>
		<linearGradient id="SVGID_22_" gradientUnits="userSpaceOnUse" x1="796.5" y1="739.9139" x2="833.1276" y2="739.9139">
			<stop  offset="0" style="stop-color:#F13DD2"/>
			<stop  offset="1" style="stop-color:#5644C2"/>
		</linearGradient>
		<path class="st21" d="M803.1,749.1c-2.1-1.9-4.4-3.9-6.6-5.9c1.9-1.9,3.4-4.8,5.7-5.5c7.5-2.5,15.3-4.2,23-6.2
			c3.3-0.9,7.4-1.9,7.9,2.6c0.3,2.4-1.9,6.9-4,7.7C821,744.8,812.6,746.6,803.1,749.1z"/>
		<linearGradient id="SVGID_23_" gradientUnits="userSpaceOnUse" x1="1484.0481" y1="568.9204" x2="1517.6" y2="568.9204">
			<stop  offset="0" style="stop-color:#F13DD2"/>
			<stop  offset="1" style="stop-color:#5644C2"/>
		</linearGradient>
		<path class="st22" d="M1517.6,581.2c-3,0.7-6,2.6-7.7,1.7c-4.3-2.3-8.2-5.6-12-8.8c-3.6-3-6.8-6.3-10.3-9.4
			c-2.2-2-5.4-3.7-2.2-7.2c2.8-3,6.1-4.1,9.6-0.7c3.8,3.7,7.5,7.6,11.3,11.3c2.6,2.5,5.5,4.8,8,7.4
			C1515.4,576.6,1515.9,578.3,1517.6,581.2z"/>
		<linearGradient id="SVGID_24_" gradientUnits="userSpaceOnUse" x1="1528.2557" y1="652.2935" x2="1549.09" y2="652.2935">
			<stop  offset="0" style="stop-color:#F13DD2"/>
			<stop  offset="1" style="stop-color:#5644C2"/>
		</linearGradient>
		<path class="st23" d="M1531.9,635.3c2.9,2.4,5.6,3.7,6.7,5.8c3.8,6.9,7.2,14.1,10.3,21.4c0.6,1.4-0.3,4.4-1.6,5.6
			c-2.5,2.3-5.1,1-6.4-1.7c-4.4-8.5-8.7-17-12.6-25.7C1527.9,639.8,1530.3,637.6,1531.9,635.3z"/>
		<linearGradient id="SVGID_25_" gradientUnits="userSpaceOnUse" x1="1039.0936" y1="807.6" x2="1047.3" y2="807.6">
			<stop  offset="0" style="stop-color:#F13DD2"/>
			<stop  offset="1" style="stop-color:#5644C2"/>
		</linearGradient>
		<path class="st24" d="M1047.3,797.6c-1.7,6.2-3.5,12.5-5.3,18.7c-0.2,0.5-0.9,0.9-1.4,1.3c-0.5-0.7-1.6-1.5-1.5-2
			C1040.1,808.9,1040.8,802,1047.3,797.6z"/>
		<linearGradient id="SVGID_26_" gradientUnits="userSpaceOnUse" x1="1027.3999" y1="832.4" x2="1036.2" y2="832.4">
			<stop  offset="0" style="stop-color:#F13DD2"/>
			<stop  offset="1" style="stop-color:#5644C2"/>
		</linearGradient>
		<path class="st25" d="M1036.2,826.7c-2.3,4.3-4.6,8.5-6.8,12.8c-0.7-0.3-1.3-0.7-2-1c2.3-4.4,4.5-8.8,6.8-13.2
			C1034.8,825.8,1035.5,826.3,1036.2,826.7z"/>
		<linearGradient id="SVGID_27_" gradientUnits="userSpaceOnUse" x1="448.4586" y1="2205.9043" x2="539.4" y2="2205.9043">
			<stop  offset="0" style="stop-color:#F13DD2"/>
			<stop  offset="1" style="stop-color:#5644C2"/>
		</linearGradient>
		<path class="st26" d="M461.9,2203.2c21.4-2.4,42.1-10,64.1-7.5c3,0.3,6.1,0.2,8.8,1.1c1.8,0.6,3.1,2.8,4.6,4.3
			c-1.8,1.3-3.4,2.9-5.3,3.9c-1.1,0.6-2.6,0.3-3.9,0.4c-16.3,1.1-32.5,2.1-48.8,3.2c-3.9,0.3-7.2,0.2-9.7,4.9
			c-3,5.4-20.1,3.2-23.2-2.3c-0.3-0.5,1.1-2.4,2.1-2.9c3.7-2,7.6-3.7,11.5-5.5C462,2202.6,461.9,2203.2,461.9,2203.2z"/>
		<linearGradient id="SVGID_28_" gradientUnits="userSpaceOnUse" x1="152.4233" y1="1838.349" x2="164.7358" y2="1838.349">
			<stop  offset="0" style="stop-color:#F13DD2"/>
			<stop  offset="1" style="stop-color:#5644C2"/>
		</linearGradient>
		<path class="st27" d="M153.9,1831.8c10.6,0.3,11.7,1.4,10.4,10.9l0.3-0.4c-2.6,2.9-6,3.7-8.4,0.7
			C153.7,1840,150.5,1836.3,153.9,1831.8z"/>
		<linearGradient id="SVGID_29_" gradientUnits="userSpaceOnUse" x1="617.8804" y1="2377.9668" x2="692.3" y2="2377.9668">
			<stop  offset="0" style="stop-color:#F13DD2"/>
			<stop  offset="1" style="stop-color:#5644C2"/>
		</linearGradient>
		<path class="st28" d="M643.7,2340.7c-2.4,5.6,2,8.7,5.4,12.3c3.7,3.9,9.7,6.8,5.5,14.1c-0.6,1,1.1,3.6,2.2,5.2
			c10.9,17.1,21.9,34.1,32.9,51.1c0.4,0.6,0.9,1.1,1,1.7c0.6,3.4,1.1,6.7,1.6,10.1c-2.8-1.3-6.4-1.8-8.4-3.9
			c-5.8-5.9-11.2-12.1-16.4-18.6c-7.5-9.2-14.2-19.2-22.2-28c-10.1-11.1-14.6-25.1-21.7-37.8c-2-3.6-4.7-7.2-5.4-11.1
			c-0.7-3.8-0.3-8.7,1.7-11.8c1.4-2.2,6.6-3.8,9.5-3.1C640.5,2323.7,643.9,2328.9,643.7,2340.7z"/>
		<linearGradient id="SVGID_30_" gradientUnits="userSpaceOnUse" x1="291.8" y1="2142.6409" x2="350.8412" y2="2142.6409">
			<stop  offset="0" style="stop-color:#F13DD2"/>
			<stop  offset="1" style="stop-color:#5644C2"/>
		</linearGradient>
		<path class="st29" d="M291.8,2157.4c1.2-3,1.9-8.3,4.8-11.3c12.3-12.9,23.7-27.2,41-34c3.1-1.2,6.3-2.2,9.5-2.7
			c1.2-0.2,3.3,1.3,3.7,2.5c0.3,0.9-1.1,3.3-2.2,3.6c-15.3,4.8-25.2,16.5-36,27.4c-7.7,7.9-11.8,16.6-12.2,27.4
			c-0.1,1.9-1.5,3.7-2.4,5.6c-1.4-1.7-3.4-3.2-3.9-5.1C293,2166.9,292.7,2162.9,291.8,2157.4z"/>
		<linearGradient id="SVGID_31_" gradientUnits="userSpaceOnUse" x1="337.5" y1="1908.376" x2="377.5" y2="1908.376">
			<stop  offset="0" style="stop-color:#F13DD2"/>
			<stop  offset="1" style="stop-color:#5644C2"/>
		</linearGradient>
		<path class="st30" d="M377.5,1902.3c-4.9,3.9-8,8-11.9,9.2c-8.1,2.4-16.7,3.2-25.2,4.5c-0.9,0.1-1.9-0.3-2.9-0.5
			c0.4-1.1,0.6-2.5,1.4-3.2c1.1-1.1,2.7-2.7,4.1-2.6c11,0.3,20.4-4.3,29.9-8.9C373.5,1900.5,374.7,1901.3,377.5,1902.3z"/>
		<linearGradient id="SVGID_32_" gradientUnits="userSpaceOnUse" x1="314.076" y1="1967.95" x2="320.6" y2="1967.95">
			<stop  offset="0" style="stop-color:#F13DD2"/>
			<stop  offset="1" style="stop-color:#5644C2"/>
		</linearGradient>
		<path class="st31" d="M320.6,1964.8c-0.2,1.5-0.1,2.3-0.4,2.7c-1.5,1.9-3.1,3.7-4.7,5.5c-0.5-0.7-1.6-1.7-1.4-2
			c1.5-2.8,3.2-5.4,4.9-8.1C319.7,1963.7,320.3,1964.5,320.6,1964.8z"/>
		<linearGradient id="SVGID_33_" gradientUnits="userSpaceOnUse" x1="132.4404" y1="2176.1704" x2="140.8584" y2="2176.1704">
			<stop  offset="0" style="stop-color:#F13DD2"/>
			<stop  offset="1" style="stop-color:#5644C2"/>
		</linearGradient>
		<path class="st32" d="M137.4,2182.4c-1.7-1.8-4.4-3.5-4.9-5.6c-0.4-2.1,1.3-4.7,2.5-6.9c0.2-0.3,3.6,0.2,4.1,1.1
			c1.1,2.1,2,4.8,1.7,7.1c-0.2,1.6-2.3,2.9-3.6,4.4C137.1,2182.6,137.4,2182.4,137.4,2182.4z"/>
		<linearGradient id="SVGID_34_" gradientUnits="userSpaceOnUse" x1="865.5126" y1="2334.5552" x2="883.6115" y2="2334.5552">
			<stop  offset="0" style="stop-color:#F13DD2"/>
			<stop  offset="1" style="stop-color:#5644C2"/>
		</linearGradient>
		<path class="st33" d="M883.6,2330.6c0.3,6.5-5.3,11.5-10.5,11.1c-4.6-0.3-8.2-4.2-7.5-8.6c0.6-3.7,1.4-7.5,7-4.8
			c1.8,0.9,4.5,0,6.6,0.4C881.1,2329,882.6,2330.1,883.6,2330.6z"/>
		<linearGradient id="SVGID_35_" gradientUnits="userSpaceOnUse" x1="720.2405" y1="2288.842" x2="737" y2="2288.842">
			<stop  offset="0" style="stop-color:#F13DD2"/>
			<stop  offset="1" style="stop-color:#5644C2"/>
		</linearGradient>
		<path class="st34" d="M728.9,2289.4c-1.1,0.4-2.2,1.1-3.4,1.1c-1.7,0-3.5-0.3-5.1-0.9c-0.3-0.1-0.2-2.9,0.5-3.5
			c1.3-1.1,3.1-1.7,4.8-2.2c0.5-0.2,1.2,0.4,1.8,0.7c1.2,0.5,2.4,1,3.6,1.5c2,0.8,3.9,1.5,5.9,2.3c-2.1,1.8-4.1,3.8-6.4,5.4
			c-0.3,0.2-1.6-0.9-2.4-1.4C728.4,2291.3,728.6,2290.4,728.9,2289.4z"/>
		<linearGradient id="SVGID_36_" gradientUnits="userSpaceOnUse" x1="799.7703" y1="2306.1006" x2="807.3" y2="2306.1006">
			<stop  offset="0" style="stop-color:#F13DD2"/>
			<stop  offset="1" style="stop-color:#5644C2"/>
		</linearGradient>
		<path class="st35" d="M805.9,2304.9c-0.1,0.6-0.6,1.5-0.3,1.9c2.9,3.8,2,6.6-2.6,6.7c-4.8,0.1-2.8-4.1-2.9-6.8
			c0-1-0.3-2.2,0.1-2.9c1.1-1.8,2.5-3.4,3.8-5.1c1.1,1.7,2.2,3.4,3.3,5.1C806.9,2304.2,806.4,2304.5,805.9,2304.9z"/>
		<linearGradient id="SVGID_37_" gradientUnits="userSpaceOnUse" x1="695.697" y1="2293.4709" x2="704.5826" y2="2293.4709">
			<stop  offset="0" style="stop-color:#F13DD2"/>
			<stop  offset="1" style="stop-color:#5644C2"/>
		</linearGradient>
		<path class="st36" d="M702.3,2288.2c0.8,1.7,2.7,4.1,2.2,4.9c-1.5,2.2-3.8,3.9-6.1,5.6c-0.4,0.3-2.8-1.1-2.7-1.2
			c1.1-2.7,2.3-5.4,3.5-8.1C700.2,2288.9,701.3,2288.5,702.3,2288.2z"/>
		<linearGradient id="SVGID_38_" gradientUnits="userSpaceOnUse" x1="842.5963" y1="2323.7998" x2="850.2" y2="2323.7998">
			<stop  offset="0" style="stop-color:#F13DD2"/>
			<stop  offset="1" style="stop-color:#5644C2"/>
		</linearGradient>
		<path class="st37" d="M850.2,2323.9c-1.8,1.7-3.1,3.7-4.3,3.7s-3.2-2.1-3.3-3.4c-0.1-1.3,1.8-2.8,2.7-4.2
			C846.7,2321.2,848.1,2322.3,850.2,2323.9z"/>
		<linearGradient id="SVGID_39_" gradientUnits="userSpaceOnUse" x1="822.8966" y1="2324.8501" x2="830.8" y2="2324.8501">
			<stop  offset="0" style="stop-color:#F13DD2"/>
			<stop  offset="1" style="stop-color:#5644C2"/>
		</linearGradient>
		<path class="st38" d="M826.5,2329c-1.6-1.2-3.7-2.5-3.6-2.9c0.7-1.9,2.1-3.6,3.3-5.4c1.5,1.5,3.1,3,4.6,4.5
			C829.5,2326.4,828.2,2327.5,826.5,2329z"/>
		<linearGradient id="SVGID_40_" gradientUnits="userSpaceOnUse" x1="785.0952" y1="2329.6482" x2="793.3" y2="2329.6482">
			<stop  offset="0" style="stop-color:#F13DD2"/>
			<stop  offset="1" style="stop-color:#5644C2"/>
		</linearGradient>
		<path class="st39" d="M788.1,2333.9c-1.6-1.7-3.1-3.2-3-3.3c1.4-1.9,3-3.7,4.9-5.2c0.2-0.1,2.1,1.9,3.3,2.9
			C791.7,2330.1,790.1,2331.7,788.1,2333.9z"/>
		<linearGradient id="SVGID_41_" gradientUnits="userSpaceOnUse" x1="823.7808" y1="2312.75" x2="830.0036" y2="2312.75">
			<stop  offset="0" style="stop-color:#F13DD2"/>
			<stop  offset="1" style="stop-color:#5644C2"/>
		</linearGradient>
		<path class="st40" d="M826.3,2317.2c-1.3-2.1-2.7-3.5-2.5-4.4c0.4-1.6,1.8-3,2.8-4.5c1.2,1.3,3.4,2.5,3.4,3.9
			C830.1,2313.5,828.1,2315,826.3,2317.2z"/>
		<linearGradient id="SVGID_42_" gradientUnits="userSpaceOnUse" x1="804.3795" y1="2328.25" x2="810.7038" y2="2328.25">
			<stop  offset="0" style="stop-color:#F13DD2"/>
			<stop  offset="1" style="stop-color:#5644C2"/>
		</linearGradient>
		<path class="st41" d="M806.7,2332.6c-1.2-1.9-2.5-3.2-2.3-3.8c0.9-1.8,2.4-3.3,3.6-4.9c0.9,0.8,2.8,2.1,2.7,2.5
			C809.9,2328.3,808.5,2330,806.7,2332.6z"/>
		<linearGradient id="SVGID_43_" gradientUnits="userSpaceOnUse" x1="761.2404" y1="2303.05" x2="766.4194" y2="2303.05">
			<stop  offset="0" style="stop-color:#F13DD2"/>
			<stop  offset="1" style="stop-color:#5644C2"/>
		</linearGradient>
		<path class="st42" d="M762.5,2306.8c-0.6-1.5-1.5-2.6-1.2-3.1c0.8-1.6,2.1-2.9,3.2-4.4c0.7,1,2.1,2.2,1.9,2.9
			C765.9,2303.5,764.5,2304.5,762.5,2306.8z"/>
		<linearGradient id="SVGID_44_" gradientUnits="userSpaceOnUse" x1="838.895" y1="2310.2998" x2="845.3" y2="2310.2998">
			<stop  offset="0" style="stop-color:#F13DD2"/>
			<stop  offset="1" style="stop-color:#5644C2"/>
		</linearGradient>
		<path class="st43" d="M845.3,2310.9c-1.8,1.2-3.1,2-4.3,2.8c-0.8-1.2-2.2-2.5-2.1-3.6s1.8-2.1,2.8-3.2
			C842.7,2308.1,843.8,2309.2,845.3,2310.9z"/>
		<linearGradient id="SVGID_45_" gradientUnits="userSpaceOnUse" x1="729.8949" y1="2325.2024" x2="735.8" y2="2325.2024">
			<stop  offset="0" style="stop-color:#F13DD2"/>
			<stop  offset="1" style="stop-color:#5644C2"/>
		</linearGradient>
		<path class="st44" d="M735.8,2325.1c-1.8,1.2-3,2.1-4.3,2.7c-0.3,0.1-1.7-1.3-1.6-1.6c0.6-1.3,1.5-2.4,2.3-3.6
			C733.2,2323.4,734.1,2324,735.8,2325.1z"/>
		<linearGradient id="SVGID_46_" gradientUnits="userSpaceOnUse" x1="717.6" y1="2317.5" x2="723.7" y2="2317.5">
			<stop  offset="0" style="stop-color:#F13DD2"/>
			<stop  offset="1" style="stop-color:#5644C2"/>
		</linearGradient>
		<path class="st45" d="M717.9,2319.9c1.6-1.6,3.2-3.2,4.8-4.8c0.3,0.5,0.7,1,1,1.6c-2,1-4,2-6.1,3
			C717.6,2319.7,717.9,2319.9,717.9,2319.9z"/>
		<linearGradient id="SVGID_47_" gradientUnits="userSpaceOnUse" x1="776.2" y1="2301.2476" x2="781.004" y2="2301.2476">
			<stop  offset="0" style="stop-color:#F13DD2"/>
			<stop  offset="1" style="stop-color:#5644C2"/>
		</linearGradient>
		<path class="st46" d="M778.5,2304c-1.1-1-2.3-2-2.3-2.1c0.9-1.2,1.9-2.4,3-3.4c0.1-0.1,1.9,1.3,1.8,1.4
			C780.4,2301.3,779.5,2302.4,778.5,2304z"/>
		<linearGradient id="SVGID_48_" gradientUnits="userSpaceOnUse" x1="721.395" y1="2302" x2="725.522" y2="2302">
			<stop  offset="0" style="stop-color:#F13DD2"/>
			<stop  offset="1" style="stop-color:#5644C2"/>
		</linearGradient>
		<path class="st47" d="M723.5,2299.3c1,1.2,2.2,2.1,2,2.5c-0.4,1.1-1.4,1.9-2.1,2.9c-0.7-0.6-2.1-1.3-2-1.7
			C721.7,2301.9,722.6,2300.9,723.5,2299.3z"/>
		<linearGradient id="SVGID_49_" gradientUnits="userSpaceOnUse" x1="781.6455" y1="2310.3979" x2="787.204" y2="2310.3979">
			<stop  offset="0" style="stop-color:#F13DD2"/>
			<stop  offset="1" style="stop-color:#5644C2"/>
		</linearGradient>
		<path class="st48" d="M783.2,2313.8c-0.8-1.6-1.8-2.8-1.5-3.1c1-1.4,2.4-2.6,3.7-3.7c0.1-0.1,1.9,1.6,1.8,1.7
			C786.3,2310.1,785.1,2311.3,783.2,2313.8z"/>
		<linearGradient id="SVGID_50_" gradientUnits="userSpaceOnUse" x1="735.7" y1="2315.1536" x2="741.6" y2="2315.1536">
			<stop  offset="0" style="stop-color:#F13DD2"/>
			<stop  offset="1" style="stop-color:#5644C2"/>
		</linearGradient>
		<path class="st49" d="M741.6,2316.2c-1.4,0.5-2.6,1.2-3.8,1.3c-0.6,0.1-1.4-0.9-2.1-1.3c0.9-1.1,1.7-2.3,2.6-3.4
			C738.9,2313.4,739.5,2314,741.6,2316.2z"/>
		<linearGradient id="SVGID_51_" gradientUnits="userSpaceOnUse" x1="738.8914" y1="2299.3047" x2="743.6" y2="2299.3047">
			<stop  offset="0" style="stop-color:#F13DD2"/>
			<stop  offset="1" style="stop-color:#5644C2"/>
		</linearGradient>
		<path class="st50" d="M743.6,2299.5c-1.7,0.8-2.6,1.5-3.3,1.4c-0.5-0.1-1.2-1.1-1.4-1.8c-0.1-0.3,0.7-1.4,0.9-1.4
			C740.6,2297.9,741.3,2298.4,743.6,2299.5z"/>
		<linearGradient id="SVGID_52_" gradientUnits="userSpaceOnUse" x1="756.2924" y1="2314.7639" x2="760.5" y2="2314.7639">
			<stop  offset="0" style="stop-color:#F13DD2"/>
			<stop  offset="1" style="stop-color:#5644C2"/>
		</linearGradient>
		<path class="st51" d="M760.5,2315.2c-1.3,0.8-2.1,1.7-2.6,1.5c-0.7-0.2-1.5-1.1-1.6-1.8c-0.1-0.6,0.8-1.4,1.2-2.1
			C758.4,2313.5,759.2,2314.1,760.5,2315.2z"/>
		<linearGradient id="SVGID_53_" gradientUnits="userSpaceOnUse" x1="199.8725" y1="1902.462" x2="232.4757" y2="1902.462">
			<stop  offset="0" style="stop-color:#F13DD2"/>
			<stop  offset="1" style="stop-color:#5644C2"/>
		</linearGradient>
		<path class="st52" d="M225.7,1886.6c1.4,2.4,2.5,3.6,2.9,5c0.7,2.5,0.9,5.1,1.5,7.7c0.7,3,3.2,7.3,2.1,8.6
			c-2.9,3.2-7.2,5.3-11.1,7.4c-2.2,1.2-4.8,1.6-7.1,2.5c-3.8,1.5-11.7-0.4-13.5-3.4c-2-3.5,1-9.9,5.9-12.2c2.7-1.2,5.6-2.1,8.5-2.8
			c3.9-0.9,8.3-0.9,6.5-7.2C221,1891.1,223.7,1889.1,225.7,1886.6z"/>
		<linearGradient id="SVGID_54_" gradientUnits="userSpaceOnUse" x1="237.4823" y1="1894.6646" x2="264.2849" y2="1894.6646">
			<stop  offset="0" style="stop-color:#F13DD2"/>
			<stop  offset="1" style="stop-color:#5644C2"/>
		</linearGradient>
		<path class="st53" d="M249.3,1902.4c-0.6,0.2-1.3,0.6-1.9,0.4c-3.1-0.9-7.7-0.9-9-3c-2.9-4.6,1.7-7,5.1-8.9
			c2.5-1.5,5.3-2.5,8.1-3.3c11.6-3.2,14-1.2,12.1,10.3c-0.3,1.6-2.5,3.6-4.2,4.1c-3.2,0.9-6.7,0.8-10,1.1
			C249.4,1902.9,249.4,1902.6,249.3,1902.4z"/>
		<linearGradient id="SVGID_55_" gradientUnits="userSpaceOnUse" x1="238.9" y1="1874.2876" x2="266.0514" y2="1874.2876">
			<stop  offset="0" style="stop-color:#F13DD2"/>
			<stop  offset="1" style="stop-color:#5644C2"/>
		</linearGradient>
		<path class="st54" d="M248.7,1882.1c-0.3,0.2-2.2,1.9-4.4,2.4c-1.6,0.4-3.6-0.9-5.4-1.4c1.2-0.6,2.6-1,3.5-2
			c5.3-5.4,11.2-8.9,19.1-7.6c0.2,0,1.2-1.8,1.1-2.6c-0.2-1.2-1.6-2.2-1.7-3.4c-0.1-1.1,0.7-2.3,1.1-3.5c0.9,0.7,2.3,1.2,2.7,2.1
			C268.8,1876.6,263.6,1882.8,248.7,1882.1z"/>
		<linearGradient id="SVGID_56_" gradientUnits="userSpaceOnUse" x1="194.8983" y1="1893.6477" x2="217.6" y2="1893.6477">
			<stop  offset="0" style="stop-color:#F13DD2"/>
			<stop  offset="1" style="stop-color:#5644C2"/>
		</linearGradient>
		<path class="st55" d="M212.9,1884.9c1.8,1.2,3.3,2.2,4.7,3.2c-0.9,1.3-1.8,3.6-2.7,3.6c-5.4,0-7.3,4.6-10.7,7.4
			c-2.7,2.2-6.4,5.5-9,1.2c-1.1-1.8,1-7.4,3.2-9.1C202.5,1888.3,207.8,1887,212.9,1884.9z"/>
	</g>
</g>
</svg>
